<svg width="32.000000" height="32.000000" viewBox="0 0 32 32" fill="none" xmlns="http://www.w3.org/2000/svg" xmlns:xlink="http://www.w3.org/1999/xlink">
	<desc>
			Created with Pixso.
	</desc>
	<defs/>
	<path id="Vector" d="M10.37 12.25C10.37 15.35 12.89 17.87 16 17.87C19.1 17.87 21.62 15.35 21.62 12.25C21.62 9.14 19.1 6.62 16 6.62C12.89 6.62 10.37 9.14 10.37 12.25ZM20.37 12.25C20.37 14.66 18.41 16.62 16 16.62C13.58 16.62 11.62 14.66 11.62 12.25C11.62 9.83 13.58 7.87 16 7.87C18.41 7.87 20.37 9.83 20.37 12.25Z" fill="#EDF2F7" fill-opacity="1.000000" fill-rule="nonzero"/>
	<path id="Vector" d="M28.12 5.75C28.12 6.09 27.84 6.37 27.5 6.37C27.15 6.37 26.87 6.09 26.87 5.75C26.87 5.4 27.15 5.12 27.5 5.12C27.84 5.12 28.12 5.4 28.12 5.75Z" fill="#EDF2F7" fill-opacity="1.000000" fill-rule="evenodd"/>
	<path id="Vector" d="M16 32C24.86 32 32 24.81 32 16C32 13.06 31.19 10.19 29.68 7.7C29.5 7.4 29.12 7.31 28.82 7.49C28.53 7.67 28.43 8.05 28.61 8.34C30.01 10.64 30.75 13.29 30.75 16C30.75 20.27 28.95 24.24 25.78 27.04C24.81 22.49 20.78 19.12 16 19.12C11.21 19.12 7.18 22.49 6.21 27.04C3.04 24.24 1.25 20.27 1.25 16C1.25 7.86 7.86 1.25 16 1.25C19.31 1.25 22.43 2.31 25.04 4.34C25.31 4.55 25.71 4.5 25.92 4.23C26.13 3.96 26.08 3.56 25.81 3.35C22.98 1.16 19.59 0 16 0C11.72 0 7.7 1.66 4.68 4.68C1.66 7.7 0 11.72 0 16C0 24.83 7.15 32 16 32ZM16 20.37C20.41 20.37 24.08 23.6 24.67 27.93C22.14 29.77 19.15 30.75 16 30.75C12.84 30.75 9.85 29.77 7.33 27.93C7.91 23.6 11.58 20.37 16 20.37Z" fill="#EDF2F7" fill-opacity="1.000000" fill-rule="nonzero"/>
</svg>
