<svg width="25" height="20" viewBox="0 0 25 20" fill="none" xmlns="http://www.w3.org/2000/svg">
<path d="M23.8865 13.5993C23.0619 12.9514 19.0102 10.1031 15.4354 7.58993C14.4179 6.87454 13.4392 6.18643 12.5852 5.58456C12.4264 5.47269 12.2071 5.51059 12.0952 5.66934C11.9833 5.82809 12.0212 6.04745 12.18 6.15933C13.0343 6.76138 14.0132 7.44968 15.0309 8.16507C18.5986 10.6732 22.6423 13.516 23.4519 14.1523C23.6429 14.3022 24.0381 14.7658 23.5856 15.8288C23.1509 16.8505 22.2665 17.5985 21.8245 17.5371C21.4944 17.4912 20.7094 17.1781 19.1596 15.599C19.0235 15.4604 18.8011 15.4582 18.6625 15.5942C18.5238 15.7303 18.5216 15.9529 18.6577 16.0915C19.9691 17.4276 20.9731 18.1284 21.7273 18.2337C21.7749 18.2403 21.8234 18.2436 21.873 18.2436C22.2757 18.2436 22.732 18.0246 23.1753 17.6151C23.6094 17.214 23.9949 16.6632 24.2327 16.1042C24.6852 15.0407 24.559 14.1279 23.8865 13.5993Z" fill="#EDF2F7"/>
<path d="M17.2148 13.3847C17.0951 13.2308 16.8649 13.205 16.714 13.329C16.1691 13.7771 14.4924 14.603 12.3125 14.9123C10.5664 15.16 8.00864 15.1406 5.73868 13.6425C5.57664 13.5355 5.35856 13.58 5.25144 13.7423C5.14451 13.9043 5.18919 14.1224 5.35123 14.2293C6.25651 14.8268 7.2006 15.2069 8.12565 15.4356V17.7111L6.46506 17.9628C6.27299 17.9918 6.14097 18.171 6.17008 18.3631C6.19883 18.5526 6.38084 18.6867 6.57035 18.6581L7.55546 18.5087L7.04551 19.0728C6.91514 19.2167 6.92649 19.439 7.07041 19.5694C7.2125 19.6978 7.43864 19.6864 7.56699 19.5443L8.73795 18.249C8.73869 18.2485 8.73905 18.2476 8.7396 18.247C8.79526 18.1844 8.82877 18.1024 8.82877 18.0134V15.5823C9.4625 15.6907 10.0799 15.7343 10.6611 15.7343C10.948 15.7343 11.2256 15.7233 11.4926 15.7048V18.0311L9.83201 18.2827C9.64011 18.3118 9.50809 18.4911 9.53721 18.683C9.56596 18.8725 9.74796 19.0067 9.93748 18.978L10.9224 18.8287L10.4125 19.3927C10.2823 19.5368 10.2934 19.7591 10.4375 19.8893C10.5796 20.0178 10.8056 20.0065 10.9341 19.8644L12.1051 18.5691C12.1056 18.5686 12.106 18.5678 12.1065 18.5671C12.1622 18.5046 12.1959 18.4224 12.1959 18.3333V15.6369C12.2688 15.6279 12.3409 15.6184 12.4114 15.6083C14.2787 15.3433 15.9774 14.6766 16.8728 14.0828C17.0531 14.3048 17.3375 14.6477 17.6885 15.046C17.8169 15.1915 18.039 15.2056 18.1847 15.0773C18.3305 14.9487 18.3444 14.7266 18.216 14.5811C17.6268 13.9127 17.2189 13.3898 17.2148 13.3847Z" fill="#EDF2F7"/>
<path d="M4.23539 12.3635C3.37956 11.4419 2.73576 10.3654 2.34007 9.20895C2.75077 9.38638 3.20945 9.40249 3.64579 9.32742C4.63712 9.15731 5.21537 8.53347 5.29246 7.56155C5.61784 7.32754 5.83372 6.85146 5.86503 6.24099C5.92252 5.11892 5.31992 3.81466 3.86167 3.60244C3.30778 3.52187 2.79581 3.57534 2.34483 3.75607C2.97727 2.01895 4.17625 0.860803 5.55174 0.724939C7.13468 0.56875 8.35508 1.2618 9.17942 2.78488C9.67381 3.69839 10.3072 4.52493 11.0616 5.24197C11.2004 5.3738 11.4267 5.36813 11.5585 5.22933C11.6924 5.08853 11.6867 4.86587 11.5459 4.7322C10.8451 4.06625 10.257 3.29849 9.79795 2.45016C9.1298 1.21548 7.83854 -0.207068 5.48271 0.0251097C3.60056 0.210962 2.01377 1.92391 1.41904 4.3995C0.646889 5.23593 0.441078 6.47793 0.513588 7.3962C0.557534 7.95266 0.671608 8.61147 1.16764 8.76968C1.26872 8.8019 1.3751 8.80978 1.47984 8.79458C1.87186 10.2878 2.64072 11.6796 3.71995 12.8418C3.87467 13.0086 4.03654 13.1704 4.2006 13.3231C4.34086 13.4537 4.56718 13.4455 4.69755 13.3052C4.82975 13.1631 4.82188 12.9406 4.6796 12.8083C4.52799 12.6673 4.3784 12.5177 4.23539 12.3635ZM3.52677 8.63436C2.99851 8.725 2.58781 8.62777 2.28019 8.33792C2.56748 8.0812 2.88847 7.7236 3.2609 7.27773C3.39805 7.11349 3.47587 7.0613 3.50626 7.04556C3.54691 7.07156 3.62016 7.14333 3.67088 7.19277C3.85874 7.37679 4.12772 7.63845 4.56516 7.70474C4.46446 8.23208 4.12827 8.53109 3.52677 8.63436ZM2.04142 4.76956C2.39719 4.43612 2.84104 4.2684 3.36454 4.2684C3.4918 4.2684 3.62382 4.27828 3.76023 4.29806C4.93559 4.46908 5.19486 5.57723 5.16264 6.20492C5.13627 6.71963 4.93906 7.01187 4.81272 7.01718C4.50968 7.03018 4.34892 6.8727 4.16288 6.69033C3.99534 6.52645 3.78605 6.32156 3.47788 6.33785C3.15598 6.35378 2.9044 6.60757 2.72129 6.82693C2.33036 7.29476 2.03739 7.6108 1.79954 7.82156C1.54832 8.0444 1.42362 8.08743 1.3848 8.09567C1.35368 8.05703 1.25846 7.89626 1.21452 7.34091C1.13432 6.3243 1.45878 5.31484 2.04142 4.76956Z" fill="#EDF2F7"/>
<path d="M9.15818 11.4644C9.82468 11.7742 10.6758 12.0368 11.6475 12.0368C12.6099 12.0368 13.6904 11.7792 14.8253 11.0545C14.989 10.9501 15.0368 10.7326 14.9324 10.569C14.8279 10.4054 14.6105 10.3574 14.4468 10.4619C12.8386 11.4886 11.1661 11.6148 9.47605 10.8367C8.18992 10.2448 7.36979 9.32576 7.35734 9.31166C7.22935 9.16591 7.00742 9.15126 6.86149 9.27925C6.71537 9.40724 6.70072 9.62935 6.82871 9.77547C6.86515 9.81703 7.74076 10.8056 9.15818 11.4644Z" fill="#EDF2F7"/>
<path d="M7.59336 3.77713C7.59336 3.28 7.28007 2.89072 6.8798 2.89072C6.47971 2.89072 6.16624 3.28018 6.16624 3.77713C6.16624 4.27408 6.47971 4.66354 6.8798 4.66354C7.28007 4.66354 7.59336 4.27408 7.59336 3.77713Z" fill="#EDF2F7"/>
</svg>
