<svg width="33" height="31" viewBox="0 0 33 31" fill="none" xmlns="http://www.w3.org/2000/svg">
<g clip-path="url(#clip0_856_490)" filter="url(#filter0_d_856_490)">
<path d="M27.8864 16.5992C27.0619 15.9514 23.0102 13.103 19.4354 10.5899C18.4179 9.87451 17.4392 9.1864 16.5852 8.58453C16.4264 8.47266 16.2071 8.51056 16.0952 8.66931C15.9833 8.82806 16.0212 9.04742 16.18 9.1593C17.0343 9.76135 18.0132 10.4496 19.0309 11.165C22.5985 13.6732 26.6422 16.5159 27.4519 17.1522C27.6429 17.3022 28.0381 17.7658 27.5856 18.8287C27.1509 19.8505 26.2665 20.5984 25.8245 20.5371C25.4944 20.4911 24.7094 20.178 23.1596 18.5989C23.0235 18.4603 22.8011 18.4581 22.6624 18.5942C22.5238 18.7302 22.5216 18.9529 22.6577 19.0915C23.9691 20.4276 24.9731 21.1284 25.7273 21.2336C25.7749 21.2402 25.8234 21.2435 25.873 21.2435C26.2757 21.2435 26.732 21.0245 27.1753 20.6151C27.6094 20.2139 27.9948 19.6631 28.2327 19.1041C28.6852 18.0406 28.559 17.1279 27.8864 16.5992Z" fill="#EDF2F7"/>
<path d="M21.2148 16.3847C21.0951 16.2309 20.8649 16.2051 20.714 16.3291C20.1691 16.7771 18.4924 17.6031 16.3125 17.9124C14.5664 18.1601 12.0086 18.1407 9.73868 16.6425C9.57663 16.5356 9.35855 16.5801 9.25143 16.7423C9.1445 16.9044 9.18918 17.1224 9.35123 17.2294C10.2565 17.8269 11.2006 18.207 12.1256 18.4357V20.7111L10.4651 20.9629C10.273 20.9918 10.141 21.1711 10.1701 21.3632C10.1988 21.5527 10.3808 21.6867 10.5703 21.6582L11.5554 21.5087L11.0455 22.0729C10.9151 22.2168 10.9265 22.4391 11.0704 22.5695C11.2125 22.6978 11.4386 22.6865 11.567 22.5444L12.7379 21.2491C12.7387 21.2485 12.739 21.2476 12.7396 21.2471C12.7953 21.1845 12.8288 21.1024 12.8288 21.0134V18.5823C13.4625 18.6907 14.0799 18.7343 14.6611 18.7343C14.948 18.7343 15.2256 18.7233 15.4926 18.7048V21.0312L13.832 21.2828C13.6401 21.3119 13.5081 21.4912 13.5372 21.6831C13.5659 21.8726 13.748 22.0068 13.9375 21.978L14.9224 21.8288L14.4124 22.3928C14.2823 22.5369 14.2934 22.7592 14.4375 22.8894C14.5796 23.0179 14.8056 23.0065 14.9341 22.8645L16.1051 21.5692C16.1056 21.5686 16.106 21.5679 16.1065 21.5671C16.1622 21.5047 16.1959 21.4225 16.1959 21.3333V18.6369C16.2688 18.6279 16.3409 18.6184 16.4114 18.6083C18.2787 18.3434 19.9774 17.6767 20.8728 17.0829C21.0531 17.3048 21.3375 17.6478 21.6885 18.046C21.8169 18.1916 22.039 18.2057 22.1847 18.0773C22.3305 17.9488 22.3444 17.7267 22.216 17.5811C21.6268 16.9128 21.2188 16.3898 21.2148 16.3847Z" fill="#EDF2F7"/>
<path d="M8.23539 15.3635C7.37956 14.4419 6.73576 13.3654 6.34007 12.2089C6.75077 12.3864 7.20945 12.4025 7.64579 12.3274C8.63712 12.1573 9.21537 11.5335 9.29246 10.5615C9.61784 10.3275 9.83372 9.85146 9.86503 9.24099C9.92252 8.11892 9.31992 6.81466 7.86167 6.60244C7.30778 6.52187 6.79581 6.57534 6.34483 6.75607C6.97727 5.01895 8.17625 3.8608 9.55174 3.72494C11.1347 3.56875 12.3551 4.2618 13.1794 5.78488C13.6738 6.69839 14.3072 7.52493 15.0616 8.24197C15.2004 8.3738 15.4267 8.36813 15.5585 8.22933C15.6924 8.08853 15.6867 7.86587 15.5459 7.7322C14.8451 7.06625 14.257 6.29849 13.798 5.45016C13.1298 4.21548 11.8385 2.79293 9.48271 3.02511C7.60056 3.21096 6.01377 4.92391 5.41904 7.3995C4.64689 8.23593 4.44108 9.47793 4.51359 10.3962C4.55753 10.9527 4.67161 11.6115 5.16764 11.7697C5.26872 11.8019 5.3751 11.8098 5.47984 11.7946C5.87186 13.2878 6.64072 14.6796 7.71995 15.8418C7.87467 16.0086 8.03654 16.1704 8.2006 16.3231C8.34086 16.4537 8.56718 16.4455 8.69755 16.3052C8.82975 16.1631 8.82188 15.9406 8.6796 15.8083C8.52799 15.6673 8.3784 15.5177 8.23539 15.3635ZM7.52677 11.6344C6.99851 11.725 6.58781 11.6278 6.28019 11.3379C6.56748 11.0812 6.88847 10.7236 7.2609 10.2777C7.39805 10.1135 7.47587 10.0613 7.50626 10.0456C7.54691 10.0716 7.62016 10.1433 7.67088 10.1928C7.85874 10.3768 8.12772 10.6385 8.56516 10.7047C8.46446 11.2321 8.12827 11.5311 7.52677 11.6344ZM6.04142 7.76956C6.39719 7.43612 6.84104 7.2684 7.36454 7.2684C7.4918 7.2684 7.62382 7.27828 7.76023 7.29806C8.93559 7.46908 9.19486 8.57723 9.16264 9.20492C9.13627 9.71963 8.93906 10.0119 8.81272 10.0172C8.50968 10.0302 8.34892 9.8727 8.16288 9.69033C7.99534 9.52645 7.78605 9.32156 7.47788 9.33785C7.15598 9.35378 6.9044 9.60757 6.72129 9.82693C6.33036 10.2948 6.03739 10.6108 5.79954 10.8216C5.54832 11.0444 5.42362 11.0874 5.3848 11.0957C5.35368 11.057 5.25846 10.8963 5.21452 10.3409C5.13432 9.3243 5.45878 8.31484 6.04142 7.76956Z" fill="#EDF2F7"/>
<path d="M13.1582 14.4644C13.8247 14.7742 14.6758 15.0368 15.6475 15.0368C16.6099 15.0368 17.6904 14.7792 18.8253 14.0544C18.989 13.9501 19.0368 13.7325 18.9324 13.569C18.8279 13.4053 18.6105 13.3573 18.4468 13.4619C16.8386 14.4886 15.1661 14.6147 13.4761 13.8367C12.1899 13.2447 11.3698 12.3257 11.3573 12.3116C11.2294 12.1659 11.0074 12.1512 10.8615 12.2792C10.7154 12.4072 10.7007 12.6293 10.8287 12.7754C10.8652 12.817 11.7408 13.8056 13.1582 14.4644Z" fill="#EDF2F7"/>
<path d="M11.5934 6.77716C11.5934 6.28003 11.2801 5.89075 10.8798 5.89075C10.4797 5.89075 10.1662 6.28021 10.1662 6.77716C10.1662 7.27411 10.4797 7.66357 10.8798 7.66357C11.2801 7.66357 11.5934 7.27411 11.5934 6.77716Z" fill="#EDF2F7"/>
</g>
<defs>
<filter id="filter0_d_856_490" x="0.5" y="0" width="32" height="32" filterUnits="userSpaceOnUse" color-interpolation-filters="sRGB">
<feFlood flood-opacity="0" result="BackgroundImageFix"/>
<feColorMatrix in="SourceAlpha" type="matrix" values="0 0 0 0 0 0 0 0 0 0 0 0 0 0 0 0 0 0 127 0" result="hardAlpha"/>
<feOffset dy="4"/>
<feGaussianBlur stdDeviation="2"/>
<feComposite in2="hardAlpha" operator="out"/>
<feColorMatrix type="matrix" values="0 0 0 0 0 0 0 0 0 0 0 0 0 0 0 0 0 0 0.25 0"/>
<feBlend mode="normal" in2="BackgroundImageFix" result="effect1_dropShadow_856_490"/>
<feBlend mode="normal" in="SourceGraphic" in2="effect1_dropShadow_856_490" result="shape"/>
</filter>
<clipPath id="clip0_856_490">
<rect width="24" height="24" fill="white" transform="translate(4.5)"/>
</clipPath>
</defs>
</svg>
