<svg width="24" height="24" viewBox="0 0 24 24" fill="none" xmlns="http://www.w3.org/2000/svg">
<mask id="path-1-inside-1_289_92" fill="white">
<path d="M0 6C0 2.68629 2.68629 0 6 0H18C21.3137 0 24 2.68629 24 6V18C24 21.3137 21.3137 24 18 24H6C2.68629 24 0 21.3137 0 18V6Z"/>
</mask>
<path d="M1.5 7.75H22.5V6.25H1.5V7.75ZM6 1.5H18V-1.5H6V1.5ZM22.5 6V18H25.5V6H22.5ZM18 22.5H6V25.5H18V22.5ZM1.5 18V6H-1.5V18H1.5ZM6 22.5C3.51472 22.5 1.5 20.4853 1.5 18H-1.5C-1.5 22.1421 1.85786 25.5 6 25.5V22.5ZM22.5 18C22.5 20.4853 20.4853 22.5 18 22.5V25.5C22.1421 25.5 25.5 22.1421 25.5 18H22.5ZM18 1.5C20.4853 1.5 22.5 3.51472 22.5 6H25.5C25.5 1.85786 22.1421 -1.5 18 -1.5V1.5ZM6 -1.5C1.85786 -1.5 -1.5 1.85786 -1.5 6H1.5C1.5 3.51472 3.51472 1.5 6 1.5V-1.5Z" fill="#EDF2F7" mask="url(#path-1-inside-1_289_92)"/>
</svg>
