<svg width="24" height="26" viewBox="0 0 24 26" fill="none" xmlns="http://www.w3.org/2000/svg">
<path d="M13.8491 9.51132C14.057 9.51132 14.2257 9.34281 14.2257 9.13467V8.39923C14.2257 8.19109 14.057 8.02258 13.8491 8.02258C13.6411 8.02258 13.4724 8.19109 13.4724 8.39923V9.13467C13.4724 9.34281 13.6411 9.51132 13.8491 9.51132Z" fill="#EDF2F7"/>
<path d="M13.3481 10.5926H14.3501C14.5581 10.5926 14.7268 10.4241 14.7268 10.216C14.7268 10.0081 14.5581 9.83936 14.3501 9.83936H13.3481C13.1401 9.83936 12.9714 10.0081 12.9714 10.216C12.9714 10.4241 13.1401 10.5926 13.3481 10.5926Z" fill="#EDF2F7"/>
<path d="M6.28253 9.51132C6.49047 9.51132 6.65918 9.34281 6.65918 9.13467V8.39923C6.65918 8.19109 6.49047 8.02258 6.28253 8.02258C6.07439 8.02258 5.90588 8.19109 5.90588 8.39923V9.13467C5.90588 9.34281 6.07439 9.51132 6.28253 9.51132Z" fill="#EDF2F7"/>
<path d="M5.78155 10.5926H6.78339C6.99153 10.5926 7.16004 10.4241 7.16004 10.216C7.16004 10.0081 6.99153 9.83936 6.78339 9.83936H5.78155C5.57342 9.83936 5.40491 10.0081 5.40491 10.216C5.40491 10.4241 5.57342 10.5926 5.78155 10.5926Z" fill="#EDF2F7"/>
<path d="M10.0659 10.5514C10.4383 10.5514 10.7884 10.3952 11.0262 10.1231C11.1631 9.96659 11.1472 9.72864 10.9905 9.59171C10.834 9.45479 10.596 9.47087 10.4591 9.62742C10.3643 9.7359 10.2209 9.79808 10.0659 9.79808C9.91097 9.79808 9.76757 9.7359 9.67282 9.62742C9.5359 9.47087 9.29794 9.45479 9.1414 9.59171C8.98466 9.72864 8.96877 9.96659 9.1057 10.1231C9.34345 10.3952 9.69342 10.5514 10.0659 10.5514Z" fill="#EDF2F7"/>
<path d="M1.39 9.9362C1.39 12.2622 2.31063 13.9341 4.12638 14.906C4.60719 15.1631 5.14705 15.3729 5.75733 15.5372C5.64964 16.1874 5.32635 16.8347 4.98639 17.5146C4.49145 18.5047 3.9304 19.6268 3.96885 20.9621C3.97493 21.1701 4.14854 21.3339 4.35629 21.3276C4.56423 21.3217 4.72783 21.1483 4.72195 20.9404C4.6888 19.7943 5.18256 18.8068 5.66023 17.8517C6.02 17.1321 6.36291 16.4459 6.49356 15.7067C7.11973 15.8288 7.81202 15.9115 8.58002 15.9565C9.56833 16.0141 10.5639 16.0128 11.552 15.9565C12.32 15.9115 13.0121 15.8288 13.6381 15.7067C13.7687 16.4459 14.112 17.1321 14.4718 17.8517C14.9181 18.7438 15.3795 19.6662 15.4105 20.7165C15.416 20.906 15.4065 21.1 15.3834 21.2895C15.2592 22.3024 14.7294 23.3536 13.7754 24.4849C13.5211 24.7863 13.1457 24.9591 12.7447 24.9591H12.4793C13.4705 22.8269 13.1835 20.2086 13.1694 20.0884C13.1455 19.8818 12.9585 19.7337 12.7522 19.7576C12.5454 19.7816 12.3973 19.9683 12.4212 20.1751C12.4246 20.2037 12.7302 22.9823 11.6352 24.9591H10.4425V20.1317C10.4425 19.9238 10.2738 19.7551 10.0658 19.7551C9.85787 19.7551 9.68917 19.9238 9.68917 20.1317V24.9591H8.49645C7.40614 22.9897 7.70628 20.2124 7.7104 20.1749C7.73433 19.9683 7.58623 19.7816 7.37946 19.7576C7.1729 19.7337 6.98595 19.8818 6.96221 20.0884C6.94828 20.2086 6.66109 22.8269 7.65233 24.9591H7.38692C6.98614 24.9591 6.61048 24.7863 6.35644 24.4849C5.72497 23.7364 5.27201 23.0092 5.00973 22.3234C4.93558 22.1289 4.71783 22.0316 4.52342 22.106C4.32922 22.1801 4.23192 22.3979 4.30607 22.5923C4.60268 23.368 5.08506 24.146 5.78048 24.9707C6.17812 25.4421 6.76369 25.7124 7.38692 25.7124H12.7447C13.3681 25.7124 13.9537 25.4421 14.3511 24.9707C14.7896 24.4508 15.147 23.9425 15.4254 23.4425C16.7013 23.2032 17.6731 22.6698 18.3899 21.8143C19.253 20.7842 19.5591 19.5064 19.8551 18.2705C20.0281 17.5476 20.1917 16.8647 20.4561 16.2278C20.5358 16.0355 20.4448 15.8152 20.2525 15.7354C20.0603 15.6557 19.84 15.7468 19.7603 15.939C19.4731 16.6313 19.2948 17.3754 19.1224 18.0949C18.8468 19.246 18.5615 20.4364 17.8126 21.3303C17.3164 21.9226 16.665 22.3326 15.8336 22.5735C15.9678 22.2198 16.0596 21.8696 16.112 21.5196C16.1349 21.3666 16.1512 21.2124 16.159 21.0577C17.2378 20.436 17.5195 19.2604 17.8704 17.795C18.106 16.8112 18.3732 15.6959 18.9425 14.6684C19.5893 13.5014 20.5307 12.6241 21.8211 11.9866C22.136 11.8312 22.5283 11.9648 22.6833 12.2787C22.8388 12.5937 22.7054 12.9857 22.3912 13.141C21.6318 13.5161 21.0323 13.9836 20.5582 14.5703C20.4273 14.732 20.4524 14.9691 20.6143 15.1C20.7761 15.2306 21.0133 15.2055 21.1439 15.0439C21.5482 14.5436 22.0653 14.1423 22.7249 13.8162C23.4026 13.4814 23.6935 12.6375 23.364 11.956C23.3622 11.9524 23.3604 11.9487 23.3587 11.945C23.024 11.2676 22.1793 10.9767 21.4984 11.3059C21.4947 11.3076 21.4911 11.3094 21.4874 11.3112C20.055 12.0189 19.007 12.9976 18.2836 14.3031C17.6645 15.4205 17.3847 16.5887 17.1377 17.6196C16.8486 18.8268 16.6503 19.6529 16.1149 20.158C15.9709 19.1678 15.5366 18.2966 15.1454 17.5146C14.8053 16.8347 14.482 16.1874 14.3743 15.5372C14.9846 15.3729 15.5244 15.1631 16.0051 14.906C17.8208 13.9341 18.7416 12.262 18.7416 9.93601C18.7416 8.94692 18.6337 8.01178 18.4228 7.14C19.9302 4.77438 19.7072 2.33344 19.4339 1.07462C19.3121 0.51318 18.8427 0.0955348 18.2663 0.0351144C18.0433 0.0117702 17.819 0 17.6001 0C15.6433 0 14.3855 0.918664 13.9123 1.33906C12.7298 0.753685 11.406 0.435693 10.0658 0.435693C8.72538 0.435693 7.40163 0.753685 6.21931 1.33906C5.74595 0.918664 4.48792 0 2.53132 0C2.31239 0 2.08837 0.0117702 1.86532 0.0351144C1.28878 0.0955348 0.819541 0.51318 0.697719 1.07462C0.424258 2.33344 0.201409 4.77438 1.70878 7.14C1.4979 8.01178 1.39 8.94692 1.39 9.9362ZM2.8142 2.29597C3.42409 2.34423 3.90039 2.5353 4.22427 2.7146C4.16738 2.76757 4.11166 2.82171 4.05634 2.87644C3.63517 3.2935 3.25872 3.75528 2.93484 4.25179C2.76417 3.52184 2.76123 2.83936 2.8142 2.29597ZM17.1968 4.25179C16.9892 3.9334 16.7611 3.63091 16.5133 3.3447C16.3295 3.13244 16.1349 2.92941 15.9307 2.73677C15.9229 2.72951 15.9152 2.72186 15.9074 2.7146C16.2312 2.5355 16.7075 2.34423 17.3172 2.29617C17.3702 2.83917 17.3673 3.52203 17.1968 4.25179ZM17.6003 0.753293C17.7931 0.753293 17.9907 0.76369 18.1878 0.784287C18.4401 0.81077 18.6451 0.991639 18.6977 1.2345C18.9235 2.27341 19.1132 4.19647 18.127 6.14208C18.1111 6.09735 18.0132 5.85312 17.9868 5.77348C17.9016 5.5624 17.8096 5.35622 17.7104 5.15495C18.1825 3.87749 18.1427 2.66104 18.0211 1.85204C17.9936 1.66901 17.8373 1.53326 17.6523 1.5315L17.6107 1.5313C16.5418 1.5313 15.764 1.89579 15.3006 2.20024C15.0831 2.03291 14.8569 1.87597 14.6221 1.73022C15.1225 1.34729 16.1351 0.753293 17.6003 0.753293ZM15.0878 2.99571C17.1105 4.68552 17.9883 7.36363 17.9883 9.93601C17.9883 11.9913 17.2235 13.3996 15.6498 14.2417C14.2156 15.0092 12.5121 15.1796 10.9115 15.2314C10.8986 15.2318 9.23307 15.2318 9.22012 15.2314C7.61899 15.1792 5.9178 15.0101 4.48184 14.2417C2.90816 13.3996 2.1433 11.9913 2.1433 9.93601C2.1433 7.55195 2.85853 5.14279 4.57502 3.42532C6.01118 1.98838 8.04056 1.18899 10.0658 1.18899C11.9041 1.18899 13.7075 1.84262 15.0878 2.99571ZM1.43375 1.2345C1.48652 0.991639 1.69152 0.81077 1.94379 0.784287C2.14094 0.76369 2.33848 0.753293 2.53132 0.753293C3.98612 0.753293 5.00365 1.34867 5.50741 1.7314C5.27338 1.87695 5.04798 2.0335 4.83102 2.20024C4.36767 1.89579 3.58966 1.5313 2.52092 1.5313L2.47933 1.5315C2.29435 1.53326 2.138 1.66901 2.11053 1.85204C1.98891 2.66104 1.94909 3.87749 2.42127 5.15495C2.32161 5.35701 2.22922 5.56416 2.14388 5.77603C2.11328 5.85175 2.02108 6.09578 2.0046 6.14228C1.01846 4.19647 1.20815 2.27341 1.43375 1.2345Z" fill="#EDF2F7"/>
</svg>
