<svg width="24" height="24" viewBox="0 0 24 24" fill="none" xmlns="http://www.w3.org/2000/svg">
<path d="M3.37032 21.9012C3.32039 22.0716 3.36463 22.2557 3.48653 22.3849C3.60843 22.5141 3.78971 22.5689 3.96275 22.5289C6.09469 22.0361 7.41062 21.4613 8.02723 21.1488L7.80122 20.7028L8.02724 21.1488C8.24704 21.0374 8.50023 21.0111 8.73824 21.0749C9.7672 21.3508 10.8624 21.5 12 21.5C18.2078 21.5 23 17.1228 23 12C23 6.87721 18.2078 2.5 12 2.5C5.79222 2.5 1 6.87721 1 12C1 14.3484 1.98872 16.5152 3.66278 18.194C3.87317 18.405 3.97852 18.6988 3.95013 18.9954C3.85826 19.9549 3.64571 20.961 3.37032 21.9012ZM3.18013 23.2079L3.27734 23.6984L3.18013 23.2079L3.15027 23.2138C3.01474 23.2406 2.87654 23.2669 2.73565 23.2927C2.60412 23.3167 2.47026 23.3404 2.33402 23.3636C2.38812 23.2307 2.44145 23.0941 2.49375 22.9543C2.54226 22.8246 2.58991 22.6922 2.63648 22.5574L2.63649 22.5573L2.64249 22.5399C2.6425 22.5399 2.6425 22.5399 2.6425 22.5399C3.02392 21.4318 3.33713 20.1518 3.4524 18.9478C3.4666 18.7994 3.41393 18.6525 3.30873 18.547C1.55171 16.7851 0.5 14.4949 0.5 12C0.5 6.53778 5.58392 2 12 2C18.4161 2 23.5 6.53778 23.5 12C23.5 17.4622 18.4161 22 12 22C10.8186 22 9.67991 21.8451 8.60875 21.5579C8.48974 21.526 8.36315 21.5391 8.25325 21.5948C7.51462 21.9691 5.8794 22.6729 3.18013 23.2079Z" stroke="#EDF2F7" stroke-linecap="round" stroke-linejoin="round"/>
</svg>
