<svg width="17" height="17" viewBox="0 0 17 17" fill="none" xmlns="http://www.w3.org/2000/svg">
<path fill-rule="evenodd" clip-rule="evenodd" d="M1.10648 1.13253C0 2.26508 0 4.08786 0 7.73345V15.1241C0 15.8806 0 16.2589 0.0977122 16.4613C0.307417 16.8957 0.798953 17.1042 1.24736 16.9488C1.45629 16.8763 1.71761 16.6089 2.24026 16.074H2.24027L2.24029 16.0739C2.6641 15.6401 2.876 15.4232 3.10951 15.248C3.59885 14.881 4.16737 14.64 4.76696 14.5454C5.05308 14.5002 5.35276 14.5002 5.95212 14.5002H9.91667C13.0215 14.5002 14.5739 14.5002 15.6188 13.6225C15.8101 13.4618 15.9855 13.2823 16.1424 13.0865C17 12.017 17 10.4281 17 7.25011C17 4.07216 17 2.48319 16.1424 1.4137C15.9855 1.21791 15.8101 1.03839 15.6188 0.877708C14.5739 0 13.0215 0 9.91667 0H7.55556C3.99383 0 2.21298 0 1.10648 1.13253ZM4.25004 8.70008C5.03245 8.70008 5.66671 8.05085 5.66671 7.25006C5.66671 6.44926 5.03245 5.80003 4.25004 5.80003C3.46763 5.80003 2.83337 6.44926 2.83337 7.25006C2.83337 8.05085 3.46763 8.70008 4.25004 8.70008ZM9.91671 7.25006C9.91671 8.05085 9.28242 8.70008 8.50004 8.70008C7.71766 8.70008 7.08337 8.05085 7.08337 7.25006C7.08337 6.44926 7.71766 5.80003 8.50004 5.80003C9.28242 5.80003 9.91671 6.44926 9.91671 7.25006ZM12.75 8.70008C13.5324 8.70008 14.1667 8.05085 14.1667 7.25006C14.1667 6.44926 13.5324 5.80003 12.75 5.80003C11.9677 5.80003 11.3334 6.44926 11.3334 7.25006C11.3334 8.05085 11.9677 8.70008 12.75 8.70008Z" fill="#EDF2F7"/>
</svg>
