<svg width="25" height="24" viewBox="0 0 25 24" fill="none" xmlns="http://www.w3.org/2000/svg">
<path d="M8.13794 8.48248V7.61609C8.13794 7.42193 7.98053 7.26453 7.78638 7.26453C7.59222 7.26453 7.43481 7.42193 7.43481 7.61609V8.48248C7.43481 8.67664 7.59222 8.83404 7.78638 8.83404C7.98053 8.83404 8.13794 8.67664 8.13794 8.48248Z" fill="#EDF2F7"/>
<path d="M17.1553 8.48248V7.61609C17.1553 7.42193 16.9979 7.26453 16.8037 7.26453C16.6096 7.26453 16.4521 7.42193 16.4521 7.61609V8.48248C16.4521 8.67664 16.6096 8.83404 16.8037 8.83404C16.9979 8.83404 17.1553 8.67664 17.1553 8.48248Z" fill="#EDF2F7"/>
<path d="M11.5386 12.1012C11.8358 12.1012 12.1062 11.9845 12.3069 11.7949C12.5076 11.9845 12.7779 12.1012 13.0752 12.1012C14.1718 12.1012 14.534 10.6298 13.8435 10.6298C13.6493 10.6298 13.4919 10.7872 13.4919 10.9813C13.4919 11.2112 13.305 11.3981 13.0752 11.3981C12.8454 11.3981 12.6584 11.2111 12.6584 10.9813C12.6584 10.7872 12.501 10.6298 12.3068 10.6298C12.1127 10.6298 11.9553 10.7872 11.9553 10.9813C11.9553 11.2112 11.7683 11.3981 11.5385 11.3981C11.3087 11.3981 11.1217 11.2111 11.1217 10.9813C11.1217 10.7872 10.9643 10.6298 10.7702 10.6298C10.0809 10.6297 10.4411 12.1012 11.5386 12.1012Z" fill="#EDF2F7"/>
<path d="M12.3034 10.2992C13.9307 10.2992 14.4701 8.42944 12.3034 8.42944C10.1359 8.42949 10.6772 10.2992 12.3034 10.2992ZM12.3035 9.13257C12.6888 9.13257 12.942 9.21746 13.0227 9.2754C12.9823 9.41443 12.7052 9.59616 12.3034 9.59616C11.9017 9.59616 11.6246 9.41443 11.5842 9.2754C11.665 9.21751 11.9181 9.13257 12.3035 9.13257Z" fill="#EDF2F7"/>
<path d="M24.0875 1.82567C24.0654 0.939359 23.409 0.206 22.5266 0.0818285C21.9143 -0.00432767 21.3012 -0.0215308 20.7045 0.0309223C20.5111 0.047891 20.3681 0.218469 20.3851 0.411875C20.4021 0.605281 20.5728 0.748203 20.766 0.731328C21.3097 0.683609 21.8691 0.699313 22.4287 0.778063C22.8383 0.835719 23.1683 1.10689 23.31 1.47041C21.7261 1.48119 20.1194 2.00295 19.0224 3.13817C18.5543 2.67786 18.0372 2.28186 17.4409 1.94309C17.8389 1.65716 18.5307 1.24011 19.4731 0.97025C19.6598 0.916812 19.7678 0.722188 19.7144 0.535484C19.6609 0.348875 19.4663 0.240922 19.2796 0.294266C17.9771 0.667203 17.1057 1.29434 16.745 1.59083C15.4798 1.02636 13.9927 0.741828 12.2951 0.741828C10.5984 0.741828 9.11179 1.02687 7.84659 1.5912C7.23834 1.08819 5.18128 -0.356968 2.06357 0.0818285C1.1811 0.206 0.524714 0.939359 0.502682 1.82567V1.82595C0.465792 3.29473 0.780932 5.93501 3.24271 7.43609C2.85121 9.01521 2.82271 10.5304 2.86935 11.5323C2.8784 11.7262 3.04345 11.8771 3.2369 11.8671C3.43087 11.8581 3.58073 11.6935 3.57168 11.4995C3.49556 9.86464 3.67092 8.513 3.97073 7.40876C4.28465 6.70545 5.17678 1.44491 12.2951 1.44491C16.4558 1.44491 19.4833 3.26276 20.6007 7.35734C21.1156 9.25062 21.0633 11.1031 20.9811 12.0702C20.8765 13.2998 19.7715 14.1912 18.5551 14.0284C17.8019 13.9275 17.0082 13.8852 16.2681 13.9002C18.3395 8.64462 13.7587 9.2772 13.6355 5.00365C13.6148 4.27522 13.027 3.70067 12.2951 3.70067C11.5649 3.70067 10.9752 4.28258 10.9547 5.00351C10.832 9.26215 6.25181 8.63923 8.32214 13.9002C7.04625 13.8744 6.04818 14.0272 6.03492 14.0284C5.08481 14.1555 4.15621 13.626 3.77667 12.7409C3.70012 12.5624 3.49345 12.4799 3.315 12.5563C3.13659 12.6329 3.05395 12.8396 3.13045 13.018C3.58354 14.0746 4.62745 14.7484 5.75128 14.7498C5.79361 15.1285 5.90086 15.4962 6.07246 15.8521C5.97023 16.0332 5.80598 16.344 5.63681 16.7455C3.76471 16.3115 1.99237 17.7422 1.99237 19.6413C1.99237 21.6926 4.0357 23.1352 5.96836 22.4397C6.73312 23.4036 7.77098 24 9.01626 24H15.5739C16.4227 24 17.2464 23.7076 17.8934 23.1767C19.3202 22.0058 19.8578 20.3265 19.4481 18.3205C19.2122 17.1657 18.733 16.2317 18.5178 15.8519C18.6892 15.4965 18.7964 15.1291 18.8388 14.7509C20.2736 14.7542 21.552 13.654 21.6817 12.1298C21.7643 11.1589 21.8165 9.34292 21.3459 7.43698C23.8091 5.93609 24.1244 3.29501 24.0875 1.82591C24.0875 1.82581 24.0875 1.82577 24.0875 1.82567ZM2.1615 0.778063C4.08089 0.50811 5.8402 1.00362 7.14839 1.94319C6.56643 2.2738 6.0389 2.67209 5.56739 3.1378C4.47548 1.99737 2.84784 1.48639 1.2801 1.47041C1.42181 1.10689 1.7519 0.835719 2.1615 0.778063ZM1.20426 2.17484C2.62696 2.17484 4.12026 2.62981 5.08945 3.65637C4.33542 4.55262 3.7965 5.61298 3.44175 6.7294C1.89553 5.70172 1.23646 4.03095 1.20426 2.17484ZM13.8907 18.5293C12.8617 18.9333 11.7285 18.9333 10.6995 18.5293C8.93386 17.8362 6.67828 16.5593 6.45187 14.6859C7.7399 14.5437 9.13711 14.5744 10.5224 14.8186C13.5793 15.3563 14.6067 14.2935 18.1383 14.6859C17.9119 16.5593 15.6561 17.8363 13.8907 18.5293ZM9.77095 9.071C10.5997 8.1994 11.5357 7.21507 11.6491 5.21989C11.6528 5.15553 11.6556 5.09009 11.6575 5.02362C11.6672 4.68397 11.9443 4.40379 12.2951 4.40379C12.644 4.40379 12.9228 4.67726 12.9327 5.02381C13.0707 9.81129 17.67 8.81014 15.4936 13.9356C13.8082 14.0676 12.7342 14.4964 10.641 14.1257C9.79439 13.9766 9.10284 13.9361 9.09665 13.9356C8.19586 11.8174 8.20898 10.714 9.77095 9.071ZM2.6955 19.6413C2.6955 18.2232 3.98812 17.1475 5.38617 17.4106C5.08471 18.3139 4.98361 19.1001 5.00911 19.7774C4.69481 19.7209 4.41557 19.5156 4.27504 19.2162C4.19254 19.0405 3.98325 18.9648 3.80742 19.0474C3.63168 19.1299 3.55607 19.3392 3.63857 19.515C3.90698 20.0868 4.47304 20.4565 5.08734 20.4927C5.18479 21.0203 5.35959 21.4653 5.56181 21.8321C4.1174 22.2258 2.6955 21.1308 2.6955 19.6413ZM17.4473 22.6331C16.4437 23.4567 15.364 23.2717 15.1774 23.2969C15.9146 22.1066 16.1194 20.8737 16.1289 20.8136C16.1595 20.6221 16.0291 20.4422 15.8376 20.4113C15.6462 20.3808 15.4657 20.5109 15.4347 20.7024C15.4323 20.7172 15.1939 22.1369 14.3281 23.2969H12.6466V21.0909C12.6466 20.8967 12.4892 20.7393 12.295 20.7393C12.1009 20.7393 11.9435 20.8967 11.9435 21.0909V23.2969H10.262C9.39717 22.1382 9.15829 20.7204 9.15539 20.7025C9.12464 20.5109 8.94445 20.3805 8.75287 20.4111C8.56115 20.4417 8.43051 20.622 8.46117 20.8137C8.47078 20.8737 8.67548 22.1066 9.41268 23.2969C9.13575 23.2596 7.6027 23.5688 6.37486 21.8104C5.30311 20.2704 5.66906 18.2291 6.50109 16.5475C7.42448 17.7666 9.13818 18.7105 10.5618 19.2289C11.1232 19.4333 11.709 19.5356 12.2951 19.5356C13.2493 19.5356 13.9166 19.2979 14.7035 18.9528C15.941 18.4112 17.2734 17.6242 18.089 16.5474C19.161 18.7148 19.3252 21.0921 17.4473 22.6331ZM21.1484 6.7294C20.7952 5.61776 20.2608 4.55984 19.5009 3.65628C20.4753 2.62545 21.966 2.18262 23.3859 2.17559C23.3534 4.03147 22.6945 5.70176 21.1484 6.7294Z" fill="#EDF2F7"/>
</svg>
