<svg width="18" height="19" viewBox="0 0 18 19" fill="none" xmlns="http://www.w3.org/2000/svg">
<g clip-path="url(#clip0_2116_3092)">
<path d="M9 0.5C5.65604 0.5 2.93555 3.2205 2.93555 6.56445C2.93555 8.03979 3.47164 9.46165 4.44509 10.5681C5.35841 11.6062 6.59422 12.2996 7.94531 12.537V14.2461H6.85547C6.27391 14.2461 5.80078 14.7192 5.80078 15.3008C5.80078 15.5825 5.9105 15.8474 6.1097 16.0466C6.30889 16.2457 6.57376 16.3555 6.85547 16.3555H7.94531V17.4453C7.94531 18.0269 8.41845 18.5 9 18.5C9.58155 18.5 10.0547 18.0269 10.0547 17.4453V16.3555H11.1445C11.4263 16.3555 11.6911 16.2457 11.8903 16.0466C12.0895 15.8473 12.1992 15.5825 12.1992 15.3008C12.1992 14.7192 11.7261 14.2461 11.1445 14.2461H10.0547V12.537C11.4058 12.2997 12.6416 11.6062 13.5549 10.5681C14.5284 9.46164 15.0645 8.03979 15.0645 6.56445C15.0645 3.2205 12.344 0.5 9 0.5ZM9.75537 12.0501C9.62473 12.0679 9.52734 12.1795 9.52734 12.3113V14.5098C9.52734 14.6554 9.64536 14.7734 9.79102 14.7734H11.1445C11.4353 14.7734 11.6719 15.01 11.6719 15.3008C11.6719 15.4416 11.617 15.5741 11.5174 15.6737C11.4178 15.7733 11.2854 15.8281 11.1445 15.8281H9.79102C9.64536 15.8281 9.52734 15.9462 9.52734 16.0918V17.4453C9.52734 17.7361 9.29078 17.9727 9 17.9727C8.70922 17.9727 8.47266 17.7361 8.47266 17.4453V16.0918C8.47266 15.9462 8.35464 15.8281 8.20898 15.8281H6.85547C6.7146 15.8281 6.5822 15.7733 6.4826 15.6737C6.383 15.5741 6.32812 15.4416 6.32812 15.3008C6.32812 15.01 6.56469 14.7734 6.85547 14.7734H8.20898C8.35464 14.7734 8.47266 14.6554 8.47266 14.5098V12.3113C8.47266 12.1795 8.37524 12.0679 8.24463 12.0501C5.51858 11.6783 3.46289 9.32 3.46289 6.56445C3.46289 3.51127 5.94682 1.02734 9 1.02734C12.0532 1.02734 14.5371 3.51127 14.5371 6.56445C14.5371 9.32 12.4814 11.6783 9.75537 12.0501Z" fill="#CED7E0"/>
<path d="M9 2.08203C7.99436 2.08203 7.04387 2.40765 6.25138 3.02369C6.13638 3.11306 6.11564 3.27871 6.20501 3.39368C6.29438 3.50864 6.46007 3.52938 6.57499 3.44001C7.27411 2.8966 8.11266 2.60938 9 2.60938C11.1808 2.60938 12.9551 4.38361 12.9551 6.56445C12.9551 8.7453 11.1808 10.5195 9 10.5195C6.81919 10.5195 5.04492 8.7453 5.04492 6.56445C5.04492 5.67707 5.33215 4.83853 5.87559 4.13945C5.96496 4.02445 5.94418 3.85883 5.82922 3.76946C5.7143 3.68009 5.54864 3.7008 5.45924 3.8158C4.8432 4.60829 4.51758 5.55877 4.51758 6.56445C4.51758 9.03608 6.52837 11.0469 9 11.0469C11.4716 11.0469 13.4824 9.03608 13.4824 6.56445C13.4824 4.09283 11.4716 2.08203 9 2.08203Z" fill="#CED7E0"/>
</g>
<defs>
<clipPath id="clip0_2116_3092">
<rect width="18" height="18" fill="white" transform="translate(0 0.5)"/>
</clipPath>
</defs>
</svg>
