<svg width="21" height="22" viewBox="0 0 21 22" fill="none" xmlns="http://www.w3.org/2000/svg">
<path id="Fill 1" d="M14.7102 20.9654L14.7102 20.9655H14.7215H16.674C18.4821 20.9655 19.9634 19.5145 19.9634 17.7157V8.79095H19.9635L19.9634 8.78408C19.9541 8.10703 19.6315 7.47502 19.088 7.05779L12.3378 1.68175L12.3365 1.68072C11.2478 0.819501 9.72286 0.820101 8.63181 1.68269L8.6318 1.68268L8.62925 1.68472L1.9264 7.05571C1.36738 7.48242 1.04325 8.11476 1.03661 8.80351H1.03659V8.80834V17.7157C1.03659 19.5145 2.5179 20.9655 4.326 20.9655H6.29693C6.83856 20.9655 7.2999 20.5337 7.2999 19.9755C7.2999 19.9557 7.30238 19.9323 7.30784 19.9073L7.31937 19.8545V19.8005V16.8389C7.31937 15.902 8.09035 15.1273 9.04301 15.12H12.0028C12.9639 15.12 13.74 15.8955 13.74 16.8389V19.9857C13.74 20.5322 14.18 20.9533 14.7102 20.9654ZM9.04639 15.6545L9.04368 15.6546C8.39816 15.658 7.85595 16.1819 7.85595 16.8389V19.9755C7.85595 20.0076 7.8517 20.0309 7.84652 20.0477L7.83236 20.0935L7.82715 20.1411C7.7442 20.9005 7.09156 21.5 6.29693 21.5H4.326C2.21182 21.5 0.5 19.7971 0.5 17.7157V8.8038C0.509399 7.94274 0.905228 7.15823 1.5913 6.63939L1.59142 6.63955L1.60242 6.63074L8.29432 1.26705C8.29473 1.26673 8.29514 1.2664 8.29554 1.26608C9.58779 0.244626 11.3838 0.245173 12.6723 1.26452C12.6725 1.26466 12.6727 1.26481 12.6728 1.26495L19.4141 6.63475L19.4141 6.63485L19.4229 6.64156C20.0911 7.15006 20.4878 7.93315 20.5 8.78315V17.7157C20.5 19.7971 18.7882 21.5 16.674 21.5H14.7093C13.8484 21.4769 13.2035 20.8089 13.2035 19.9857V16.8389C13.2035 16.1742 12.6538 15.6545 12.0028 15.6545L9.04639 15.6545Z" stroke="#EDF2F7"/>
</svg>
