<svg width="25" height="24" viewBox="0 0 25 24" fill="none" xmlns="http://www.w3.org/2000/svg">
<g clip-path="url(#clip0_856_500)">
<path d="M7.99433 19.8934C8.19374 19.8934 8.35706 19.7209 8.34571 19.5219C8.2906 18.5458 8.2201 17.8381 8.13606 17.4186C7.8343 15.9096 5.99355 13.1004 5.91536 12.9816C5.86775 12.9092 5.79524 12.8571 5.71138 12.8349C2.54458 11.9976 1.03324 10.8132 1.21982 9.31434C1.39615 7.89766 4.61788 6.33193 5.8445 5.84817C5.97872 5.79525 6.06716 5.66543 6.06716 5.52114V0.957989C6.06716 0.765363 6.27992 0.642866 6.44728 0.738263C6.99312 1.04936 7.7433 1.59776 8.21845 2.44388C8.76502 3.41727 8.83387 4.57834 8.42317 5.89504C8.38014 6.03329 8.4261 6.18362 8.53889 6.27425C8.55262 6.28524 9.91584 7.39907 10.1718 9.44471C10.1903 9.59358 10.3015 9.71424 10.4483 9.74519C10.4822 9.75214 13.8647 10.4776 16.7934 12.2118C16.9606 12.3107 17.1763 12.2556 17.2752 12.0884C17.3741 11.9212 17.3189 11.7055 17.1518 11.6066C14.5445 10.0627 11.6764 9.31068 10.8337 9.11128C10.5426 7.37398 9.5672 6.2792 9.15888 5.8868C9.5553 4.46591 9.44562 3.19278 8.83167 2.09946C8.2776 1.1129 7.41865 0.482466 6.79555 0.127243C6.49544 -0.0437773 6.13802 -0.0423124 5.83956 0.131088C5.7394 0.189132 5.65334 0.262923 5.58248 0.348067C5.47206 0.282882 5.35836 0.219161 5.24208 0.157455C4.89602 -0.0265654 4.48897 -0.0161284 4.15298 0.185653C3.8179 0.387068 3.61776 0.74101 3.61776 1.13212V2.79709C3.61776 2.99137 3.77505 3.14884 3.96932 3.14884C4.1636 3.14884 4.32107 2.99137 4.32107 2.79709V1.1323C4.32107 0.833112 4.64699 0.637556 4.91195 0.778363C5.06868 0.861676 5.21975 0.948651 5.36385 1.03764V5.28567C5.13991 5.38052 4.76565 5.54513 4.32107 5.7654V4.2037C4.32107 4.00961 4.1636 3.85214 3.96932 3.85214C3.77505 3.85214 3.61776 4.00961 3.61776 4.2037V6.13235C3.4819 6.20705 3.34384 6.28524 3.20523 6.3669C1.53879 7.34816 0.636083 8.31056 0.522008 9.22737C0.288 11.1073 1.9288 12.5374 5.39992 13.4794C5.74306 14.0141 7.20295 16.3384 7.44648 17.5564C7.52394 17.9437 7.59022 18.6184 7.64351 19.5614C7.65413 19.7487 7.80922 19.8934 7.99433 19.8934Z" fill="#EDF2F7"/>
<path d="M4.38681 8.85162C4.38681 9.34875 4.70029 9.73822 5.10056 9.73822C5.50064 9.73822 5.8143 9.34875 5.8143 8.85162C5.8143 8.35468 5.50064 7.96521 5.10056 7.96521C4.70029 7.96521 4.38681 8.35468 4.38681 8.85162Z" fill="#EDF2F7"/>
<path d="M21.8429 18.4983C21.8644 17.689 21.704 16.8536 21.3615 15.9976C20.836 14.6837 19.8238 13.4717 18.3533 12.3959C18.1966 12.2811 17.9765 12.3154 17.8619 12.4719C17.7471 12.6287 17.7813 12.8488 17.938 12.9634C19.3005 13.9604 20.2327 15.0691 20.7086 16.2589C21.3136 17.7712 21.2808 19.2032 20.611 20.5152C20.1822 21.3549 19.5232 22.0586 18.7051 22.55C17.8919 23.0384 16.9577 23.2965 16.0035 23.2965H11.7366C11.2651 23.2965 10.8812 22.9175 10.872 22.448C10.872 22.4444 10.8722 22.4407 10.8722 22.4369V22.4085C10.8845 21.9417 11.267 21.5655 11.7366 21.5655H14.941C15.2457 21.5655 15.4044 21.1859 15.1922 20.9678C15.1418 20.916 13.9687 19.682 14.6141 17.8915C15.1966 16.2759 16.4488 16.2184 16.5049 16.2166C16.6979 16.2126 16.8519 16.0535 16.8491 15.8601C16.8462 15.6677 16.6894 15.5135 16.4975 15.5135C16.4959 15.5135 16.4941 15.5135 16.4924 15.5135C16.4199 15.5146 14.706 15.5629 13.9526 17.6531C13.508 18.8863 13.7671 19.906 14.0954 20.5791C12.0437 19.7959 10.7988 18.4058 10.7848 18.3902C10.5752 18.1515 10.1691 18.3055 10.1691 18.6222V22.386C10.1685 22.401 10.168 22.416 10.168 22.431C10.168 22.4374 10.1683 22.4436 10.1683 22.45C10.1612 22.9181 9.77887 23.2965 9.3092 23.2965C8.84467 23.2965 8.45905 22.919 8.44971 22.4546C8.43909 21.9315 8.42572 21.4289 8.40943 20.9609C8.40283 20.7668 8.23987 20.6152 8.04596 20.6216C7.85187 20.6283 7.69989 20.7909 7.70667 20.9852C7.7226 21.4499 7.73597 21.9491 7.74659 22.4687C7.76343 23.313 8.46454 23.9998 9.3092 23.9998C9.79791 23.9998 10.2348 23.7744 10.5215 23.4221C10.8094 23.7744 11.2472 23.9998 11.7366 23.9998H16.0035C17.0851 23.9998 18.1446 23.7071 19.0671 23.153C19.4303 22.9347 19.7656 22.6793 20.069 22.3924C20.4175 22.6185 20.8247 22.7408 21.2453 22.7408C22.4382 22.7408 23.4088 21.7702 23.4088 20.5771C23.4088 19.6018 22.7552 18.7599 21.8429 18.4983ZM12.9878 20.8623H11.7366C11.4175 20.8623 11.1203 20.9585 10.8722 21.1229V19.4502C11.3378 19.8551 12.0556 20.3987 12.9878 20.8623ZM21.2453 22.0375C21.0043 22.0375 20.7697 21.9782 20.5605 21.867C20.8738 21.4871 21.1369 21.0652 21.3421 20.6177C21.5523 20.1614 21.6966 19.694 21.775 19.2162C22.3238 19.4299 22.7055 19.9648 22.7055 20.5771C22.7055 21.3824 22.0506 22.0375 21.2453 22.0375Z" fill="#EDF2F7"/>
</g>
<defs>
<clipPath id="clip0_856_500">
<rect width="24" height="24" fill="white" transform="translate(0.5)"/>
</clipPath>
</defs>
</svg>
