<svg width="64" height="64" viewBox="0 0 64 64" fill="none" xmlns="http://www.w3.org/2000/svg">
<path d="M9.51025 22.9897C9.51025 10.5893 19.5996 0.5 32 0.5C44.4004 0.5 54.4897 10.5893 54.4897 22.9897C54.4897 35.7136 46.5145 48.1522 39.7522 56.3968L39.7521 56.3969C39.6007 56.5815 39.3286 56.6084 39.144 56.4569L38.8269 56.8435L39.144 56.4569C38.9595 56.3055 38.9326 56.0333 39.0839 55.8489L39.084 55.8488C45.6772 47.8102 53.6255 35.5325 53.6255 22.9897C53.6255 11.065 43.9248 1.36425 32 1.36425C20.0752 1.36425 10.3745 11.065 10.3745 22.9897C10.3745 31.6191 14.2305 40.177 18.6315 47.1431C23.0381 54.118 28.0272 59.5532 30.3691 61.9489C30.8011 62.3912 31.3823 62.6359 32 62.6359C32.6178 62.6359 33.1987 62.391 33.6307 61.9492L33.6308 61.9491C34.5775 60.9806 35.5397 59.9483 36.491 58.8809C36.6499 58.7029 36.923 58.6872 37.1013 58.846C37.2793 59.0047 37.295 59.2777 37.1362 59.456C36.1757 60.5338 35.2042 61.5758 34.2488 62.5531C33.6511 63.1646 32.8543 63.5 32 63.5C31.1457 63.5 30.3489 63.1646 29.7512 62.553L29.7512 62.553C27.106 59.847 22.0121 54.2539 17.6157 47.2025C12.2192 38.5475 9.51025 30.4034 9.51025 22.9897Z" fill="#EDF2F7" stroke="#EDF2F7"/>
<path d="M20.1427 10.6721L20.1427 10.6721C23.3463 7.59458 27.5562 5.90027 32 5.90027C41.4382 5.90027 49.1176 13.5797 49.1176 23.018C49.1176 32.4563 41.4382 40.1356 32 40.1356C22.5617 40.1356 14.8823 32.4563 14.8823 23.018C14.8823 19.8181 15.7708 16.698 17.4512 13.9944C17.5771 13.7918 17.8436 13.7295 18.0464 13.8554C18.2492 13.9815 18.3113 14.2481 18.1854 14.4505L18.1854 14.4506C16.5898 17.0179 15.7467 19.9808 15.7467 23.018C15.7467 31.9807 23.0374 39.2714 32.0001 39.2714C40.9627 39.2714 48.2533 31.9808 48.2533 23.0181C48.2533 14.0555 40.9626 6.76464 32 6.76464C27.7819 6.76464 23.7825 8.37407 20.7414 11.2953L20.7413 11.2954C20.5694 11.4607 20.296 11.4554 20.1304 11.283C19.9651 11.1109 19.9706 10.8374 20.1427 10.6721Z" fill="#EDF2F7" stroke="#EDF2F7"/>
<g clip-path="url(#clip0_1333_3472)">
<path d="M27.4067 17.9816L27.4068 17.9818C27.5814 18.904 27.367 19.7663 26.9514 20.3945C26.533 21.0268 25.9294 21.3988 25.3325 21.3988C24.0771 21.3988 22.6631 20.115 22.6631 18.4096C22.6631 17.5305 22.8839 16.6259 23.2647 15.9494C23.6487 15.2673 24.1616 14.8682 24.7338 14.8682C25.3407 14.8682 25.9216 15.1963 26.4022 15.7642C26.8822 16.3313 27.2443 17.1192 27.4067 17.9816Z" fill="#EDF2F7" stroke="#EDF2F7" stroke-width="0.5"/>
<path d="M31.4053 12.7591L31.4054 12.7591C31.9932 12.9317 32.4711 13.4147 32.7905 14.1002C33.1093 14.7845 33.2576 15.6476 33.1963 16.5248C33.1297 17.463 32.7039 18.2307 32.1462 18.7158C31.5852 19.2038 30.912 19.3913 30.3376 19.2231C29.7378 19.0463 29.1724 18.5534 28.8111 17.8832C28.4514 17.2162 28.3057 16.3939 28.5204 15.5793L28.5205 15.5791C28.743 14.7326 29.1843 13.9248 29.7211 13.3821C30.2615 12.8359 30.8538 12.597 31.4053 12.7591Z" fill="#EDF2F7" stroke="#EDF2F7" stroke-width="0.5"/>
<path d="M38.6313 20.0791L38.6313 20.0791C39.0247 19.3054 39.2218 18.4534 39.1939 17.6903C39.1659 16.9259 38.9144 16.2749 38.4393 15.8619L38.4387 15.8614C37.9947 15.4731 37.3624 15.4399 36.6636 15.7052C35.9669 15.9696 35.2538 16.5167 34.7243 17.1934L34.7242 17.1935C34.2165 17.8417 34.0321 18.654 34.1044 19.4202C34.1771 20.1896 34.5059 20.8872 34.9909 21.3099L38.6313 20.0791ZM38.6313 20.0791C37.7787 21.7562 35.9149 22.1147 34.991 21.3099L38.6313 20.0791Z" fill="#EDF2F7" stroke="#EDF2F7" stroke-width="0.5"/>
<path d="M38.7268 22.3403L38.7266 22.3404C38.0864 22.6698 37.6491 23.2605 37.4373 23.918C37.2248 24.578 37.2473 25.2815 37.4971 25.8207L37.4971 25.8208C37.9752 26.8537 39.6326 27.2813 40.9132 26.2516C41.5101 25.771 41.9726 25.1487 42.2191 24.511C42.4658 23.8728 42.4898 23.2384 42.2457 22.7104L38.7268 22.3403ZM38.7268 22.3403C39.3992 21.9935 40.1772 21.8255 40.8421 21.8829M38.7268 22.3403L40.8421 21.8829M40.8421 21.8829C41.5075 21.9403 42.0163 22.2156 42.2457 22.7103L40.8421 21.8829Z" fill="#EDF2F7" stroke="#EDF2F7" stroke-width="0.5"/>
<path d="M24.0867 26.3888C24.0867 24.851 25.0687 23.4203 26.501 22.3893C27.931 21.3599 29.7642 20.7642 31.3787 20.8698C33.6255 21.0193 35.7278 23.0331 36.3145 26.3141C36.5973 27.9016 36.4488 29.3478 35.6478 30.3839C34.8518 31.4134 33.3593 32.104 30.8003 32.0656C29.1741 32.0393 27.4875 31.4026 26.2099 30.3728C24.9324 29.3431 24.0867 27.9407 24.0867 26.3888Z" fill="#EDF2F7" stroke="#EDF2F7" stroke-width="0.5"/>
</g>
<defs>
<clipPath id="clip0_1333_3472">
<rect width="21.3333" height="21.3333" fill="white" transform="translate(21.3333 11.6364)"/>
</clipPath>
</defs>
</svg>
