<svg width="24" height="24" viewBox="0 0 24 24" fill="none" xmlns="http://www.w3.org/2000/svg">
<path fill-rule="evenodd" clip-rule="evenodd" d="M12.692 2C10.246 2 8.256 3.99 8.256 6.436V7.368C8.256 7.782 8.592 8.118 9.006 8.118C9.42 8.118 9.756 7.782 9.756 7.368V6.436C9.756 4.816 11.073 3.5 12.692 3.5H17.567C19.184 3.5 20.5 4.816 20.5 6.436V17.565C20.5 19.184 19.184 20.5 17.567 20.5H12.681C11.069 20.5 9.756 19.188 9.756 17.576V16.633C9.756 16.219 9.42 15.883 9.006 15.883C8.592 15.883 8.256 16.219 8.256 16.633V17.576C8.256 20.016 10.242 22 12.681 22H17.567C20.011 22 22 20.011 22 17.565V6.436C22 3.99 20.011 2 17.567 2H12.692ZM4.6119 8.554L1.6839 11.469C1.65778 11.4949 1.63439 11.5219 1.61298 11.5504L1.6839 11.469C1.64847 11.5039 1.61696 11.5421 1.58962 11.5828C1.57759 11.6012 1.56598 11.6203 1.55523 11.6399C1.5465 11.6552 1.53847 11.6712 1.53102 11.6875C1.52471 11.7018 1.51864 11.7162 1.51303 11.7308C1.50549 11.7498 1.49889 11.7693 1.4931 11.7891C1.48873 11.8047 1.48472 11.8203 1.48121 11.836C1.47674 11.8551 1.47322 11.8743 1.47046 11.8937C1.46889 11.9063 1.46736 11.9195 1.46618 11.9328C1.46388 11.9556 1.4629 11.9777 1.4629 12L1.468 12.062L1.47005 12.1017C1.47028 12.1034 1.47051 12.1051 1.47076 12.1068L1.4629 12C1.4629 12.0555 1.46904 12.1105 1.48099 12.1639C1.48472 12.1797 1.48873 12.1953 1.49322 12.2107C1.49889 12.2307 1.50549 12.2502 1.51288 12.2695C1.51865 12.2838 1.52471 12.2982 1.53119 12.3123C1.53847 12.3288 1.5465 12.3448 1.55511 12.3605C1.56598 12.3797 1.57759 12.3988 1.59 12.4172C1.59702 12.4282 1.60472 12.439 1.61271 12.4497C1.63652 12.481 1.66247 12.5104 1.69054 12.5377L4.6119 15.447C4.7579 15.593 4.9499 15.666 5.1409 15.666C5.3329 15.666 5.5259 15.593 5.6719 15.445C5.9639 15.151 5.9629 14.677 5.6699 14.385L4.03 12.75H14.2542C14.6682 12.75 15.0042 12.414 15.0042 12C15.0042 11.586 14.6682 11.25 14.2542 11.25H4.028L5.6699 9.616C5.9629 9.324 5.9649 8.85 5.6719 8.556C5.3799 8.262 4.9059 8.262 4.6119 8.554Z" fill="#EDF2F7"/>
</svg>
