<svg width="18" height="18" viewBox="0 0 18 18" fill="none" xmlns="http://www.w3.org/2000/svg">
<path d="M16.6816 0H11.6719C11.0903 0 10.6172 0.473133 10.6172 1.05469C10.6172 1.63624 11.0903 2.10938 11.6719 2.10938H14.3991L11.352 5.15644C10.1211 4.24311 8.66271 3.76172 7.11914 3.76172C3.19363 3.76172 0 6.95535 0 10.8809C0 14.8064 3.19363 18 7.11914 18C11.0447 18 14.2383 14.8064 14.2383 10.8809C14.2383 9.33729 13.7569 7.8789 12.8435 6.64801L15.8906 3.60091V6.32812C15.8906 6.90968 16.3638 7.38281 16.9453 7.38281C17.5269 7.38281 18 6.90968 18 6.32812V1.31836C18 0.591398 17.4086 0 16.6816 0ZM17.4727 6.32812C17.4727 6.6189 17.2361 6.85547 16.9453 6.85547C16.6545 6.85547 16.418 6.6189 16.418 6.32812V2.96438C16.418 2.85771 16.3537 2.76159 16.2552 2.72078C16.1567 2.67996 16.0433 2.70253 15.9678 2.77794L12.3071 6.43859C12.2125 6.53326 12.2038 6.68394 12.287 6.78885C13.2185 7.96363 13.7109 9.37863 13.7109 10.8809C13.7109 14.5156 10.7539 17.4727 7.11914 17.4727C3.48441 17.4727 0.527344 14.5156 0.527344 10.8809C0.527344 7.24613 3.48441 4.28906 7.11914 4.28906C8.62133 4.28906 10.0363 4.78143 11.2112 5.71296C11.3161 5.79614 11.4667 5.78749 11.5614 5.69278L15.2221 2.03214C15.2975 1.95673 15.32 1.84331 15.2792 1.7448C15.2384 1.64626 15.1422 1.58203 15.0356 1.58203H11.6719C11.3811 1.58203 11.1445 1.34546 11.1445 1.05469C11.1445 0.76391 11.3811 0.527344 11.6719 0.527344H16.6816C17.1178 0.527344 17.4727 0.882176 17.4727 1.31836V6.32812Z" fill="#EDF2F7"/>
<path d="M7.11914 5.34375C5.84445 5.34375 4.59995 5.78767 3.61491 6.59377C3.5022 6.68598 3.4856 6.85209 3.57782 6.9648C3.67003 7.07752 3.83618 7.09411 3.94886 7.00189C4.83996 6.27268 5.96584 5.87109 7.11914 5.87109C9.88154 5.87109 12.1289 8.11846 12.1289 10.8809C12.1289 13.6433 9.88154 15.8906 7.11914 15.8906C4.35674 15.8906 2.10938 13.6433 2.10938 10.8809C2.10938 9.72756 2.51096 8.60164 3.24018 7.71057C3.33239 7.59786 3.3158 7.43175 3.20312 7.33953C3.09045 7.24732 2.9243 7.26395 2.83208 7.37659C2.02595 8.36167 1.58203 9.60616 1.58203 10.8809C1.58203 13.934 4.06596 16.418 7.11914 16.418C10.1723 16.418 12.6562 13.934 12.6562 10.8809C12.6562 7.82768 10.1723 5.34375 7.11914 5.34375Z" fill="#EDF2F7"/>
</svg>
