<svg width="25" height="24" viewBox="0 0 25 24" fill="none" xmlns="http://www.w3.org/2000/svg">
<g clip-path="url(#clip0_856_509)">
<path d="M19.2782 12.2844C18.89 12.2844 18.5751 12.5994 18.5751 12.9875C18.5751 13.3754 18.89 13.6907 19.2782 13.6907C19.6662 13.6907 19.9813 13.3754 19.9813 12.9875C19.9813 12.5994 19.6662 12.2844 19.2782 12.2844Z" fill="#EDF2F7"/>
<path d="M21.3542 10.0366L19.9813 8.89258V7.71558C19.9813 5.66681 18.3143 4 16.2648 4C14.4481 4 12.9319 5.31085 12.6121 7.0368C8.38544 7.3598 5.01868 10.8882 5.01868 15.2462V16.7538C5.01868 17.0369 5.07288 17.3074 5.17029 17.5562H3.88049C2.76904 17.5562 1.90625 16.6497 1.90625 15.5816C1.90625 15.068 2.10638 14.5848 2.46967 14.2213L3.29034 13.4006C4.53473 12.1575 3.65125 10.0251 1.89215 10.0251H1.20312C0.814758 10.0251 0.5 10.3398 0.5 10.7282C0.5 11.1164 0.814758 11.4313 1.20312 11.4313H1.89215C2.40009 11.4313 2.65588 12.0466 2.2959 12.4064L1.47504 13.2271C0.846253 13.8564 0.5 14.6924 0.5 15.582C0.5 17.4522 2.0141 18.9625 3.88049 18.9625H22.2914C23.5092 18.9625 24.5 17.9717 24.5 16.7538V16.7527C24.5 14.1503 23.3534 11.7023 21.3542 10.0366ZM23.0938 16.7538C23.0938 17.1962 22.7338 17.5562 22.2914 17.5562H7.22729C6.78491 17.5562 6.42493 17.1962 6.42493 16.7531V15.2462C6.42493 11.671 9.15887 8.76312 12.6216 8.44781C13.0966 10.8381 15.2916 11.4313 16.2648 11.4313H16.2657C16.6539 11.4313 16.9683 11.1164 16.9683 10.7282C16.9683 10.3398 16.6532 10.0251 16.2648 10.0251C15.0109 10.0251 13.9562 9.01141 13.9562 7.71558C13.9562 7.71558 13.9562 7.71539 13.9562 7.71521C13.9562 7.71521 13.9562 7.71503 13.9562 7.71484C13.9562 6.44189 14.9919 5.40625 16.2657 5.40625C17.5391 5.40625 18.5751 6.44226 18.5751 7.71576V9.2218C18.5751 9.43054 18.6677 9.62848 18.8281 9.76215L20.4541 11.1169C22.1317 12.5148 23.0938 14.5688 23.0938 16.7527V16.7538Z" fill="#EDF2F7"/>
</g>
<defs>
<clipPath id="clip0_856_509">
<rect width="24" height="24" fill="white" transform="translate(0.5)"/>
</clipPath>
</defs>
</svg>
