<svg width="18" height="19" viewBox="0 0 18 19" fill="none" xmlns="http://www.w3.org/2000/svg">
<path d="M17.9771 12.7473L16.3774 8.34735C16.3235 8.19808 16.1486 8.10883 16.0227 8.10059L3.93556 8.18833C3.89217 8.18833 3.84932 8.19657 3.80881 8.21154L0.246561 9.52392C0.0530754 9.59519 -0.0466198 9.80969 0.023826 10.004L3.02361 18.2534C3.05739 18.3472 3.12784 18.4237 3.21792 18.4657C3.26735 18.4883 3.32146 18.5002 3.37543 18.5002C3.41964 18.5002 3.46317 18.4927 3.5052 18.477L17.7543 13.2272C17.9478 13.1561 18.0475 12.9416 17.9771 12.7473Z" fill="#388E3C"/>
<path d="M17.8898 6.61043L11.8902 0.610723C11.744 0.464476 11.5061 0.464476 11.36 0.610723L0.110662 11.8601C-0.0355852 12.0063 -0.0355852 12.2442 0.110662 12.3904L6.11023 18.39C6.18301 18.4635 6.279 18.5003 6.37499 18.5003C6.47097 18.5003 6.56696 18.4635 6.64043 18.3908L17.8898 7.14145C18.036 6.99438 18.036 6.7575 17.8898 6.61043Z" fill="#4CAF50"/>
<path d="M11.2004 9.85017C11.0715 9.29526 10.7385 8.72826 10.2646 8.25422C9.22285 7.21264 7.85568 6.94788 7.15149 7.65207C6.44717 8.35625 6.71193 9.72343 7.75365 10.7651C8.22768 11.239 8.79455 11.572 9.3496 11.7011C9.52125 11.7416 9.687 11.7611 9.84451 11.7611C10.254 11.7611 10.6072 11.6268 10.8667 11.3673C11.226 11.0074 11.3445 10.4689 11.2004 9.85017Z" fill="#FAFAFA"/>
<path d="M6.37508 18.5001C6.27909 18.5001 6.1831 18.4633 6.10963 18.3907L0.10993 12.391C-0.0363177 12.2447 -0.0363177 12.007 0.10993 11.8608L11.3593 0.611394C11.5055 0.465147 11.7432 0.465147 11.8895 0.611394L17.8892 6.6111C18.0354 6.75735 18.0354 6.99505 17.8892 7.1413L6.63983 18.3907C6.56705 18.4633 6.47106 18.5001 6.37508 18.5001ZM0.905706 12.1255L6.37508 17.5949L17.0942 6.87572L11.6247 1.40635L0.905706 12.1255Z" fill="black"/>
<path d="M3.37528 18.5002C3.32131 18.5002 3.26721 18.4883 3.21695 18.4657C3.127 18.4237 3.05656 18.3472 3.02278 18.2534L1.30832 13.5392C1.23705 13.345 1.33757 13.1297 1.53257 13.0586C1.72839 12.9888 1.94288 13.0885 2.01333 13.2828L3.5987 17.643L5.43757 16.9651C5.62955 16.893 5.84706 16.9928 5.91916 17.187C5.99111 17.3813 5.89128 17.5965 5.69711 17.6684L3.50505 18.4762C3.46303 18.4926 3.4195 18.5002 3.37528 18.5002Z" fill="black"/>
<path d="M0.975351 11.9006C0.822375 11.9006 0.678462 11.8061 0.622984 11.6539L0.0230272 10.004C-0.0482425 9.80971 0.0514527 9.59521 0.245762 9.52394L3.80801 8.21156C4.00068 8.14112 4.21819 8.2393 4.28946 8.43361C4.36142 8.62778 4.26172 8.84297 4.06755 8.91506L0.855469 10.0985L1.32785 11.3974C1.39912 11.5924 1.2986 11.8069 1.10361 11.8782C1.0609 11.8932 1.01737 11.9006 0.975351 11.9006Z" fill="black"/>
<path d="M8.12482 16.7506C7.97267 16.7506 7.82862 16.6568 7.77314 16.5053C7.70119 16.311 7.80088 16.0958 7.99519 16.0239L17.1446 12.6536L15.6717 8.60455C15.6005 8.41024 15.701 8.19506 15.896 8.12379C16.0925 8.05334 16.3068 8.15304 16.3766 8.34803L17.9771 12.7481C18.0483 12.9423 17.9485 13.1568 17.7543 13.228L8.25459 16.7281C8.21189 16.743 8.16835 16.7506 8.12482 16.7506Z" fill="black"/>
<path d="M13.5071 13.1882C13.355 13.1882 13.2109 13.0946 13.1555 12.9431C13.0835 12.7488 13.1832 12.5336 13.3775 12.4615L15.2448 11.7738C15.4368 11.7019 15.6543 11.8016 15.7263 11.9959C15.7984 12.19 15.6985 12.4054 15.5043 12.4773L13.6369 13.165C13.5942 13.1815 13.55 13.1882 13.5071 13.1882Z" fill="black"/>
<path d="M9.83835 11.7612C9.17618 11.7612 8.40155 11.4139 7.75353 10.7652C6.71181 9.72345 6.44788 8.35628 7.15138 7.6521C7.51061 7.29286 8.04973 7.17504 8.66768 7.31841C9.22273 7.44804 9.78973 7.78036 10.2636 8.25508C11.3054 9.29597 11.5701 10.6631 10.8666 11.3682C10.6012 11.6329 10.2404 11.7612 9.83835 11.7612ZM8.17428 8.00831C8.00181 8.00831 7.81505 8.048 7.68157 8.18161C7.33882 8.52505 7.50155 9.45197 8.28373 10.2342C9.06591 11.0157 9.99297 11.1792 10.3364 10.8364C10.6792 10.4929 10.5156 9.56595 9.73343 8.78376C9.36225 8.41258 8.91143 8.14412 8.49754 8.048C8.41199 8.0285 8.2965 8.00831 8.17428 8.00831Z" fill="black"/>
<path d="M13.8746 8.75081C13.7787 8.75081 13.6827 8.71401 13.6092 8.64123C13.4629 8.49498 13.4629 8.25728 13.6092 8.11103L15.1092 6.61121C15.2554 6.46496 15.4931 6.46496 15.6394 6.61121C15.7856 6.75746 15.7856 6.99516 15.6394 7.14141L14.1394 8.64123C14.0666 8.71401 13.9706 8.75081 13.8746 8.75081Z" fill="black"/>
<path d="M2.62537 12.5005C2.52938 12.5005 2.4334 12.4638 2.35993 12.3911C2.21368 12.2448 2.21368 12.0071 2.35993 11.8609L3.85989 10.3609C4.00614 10.2147 4.24384 10.2147 4.39009 10.3609C4.53633 10.5072 4.53633 10.7449 4.39009 10.8911L2.89013 12.3911C2.81735 12.4638 2.72136 12.5005 2.62537 12.5005Z" fill="black"/>
</svg>
