<?xml version="1.0" encoding="utf-8"?>
<!-- Generator: Adobe Illustrator 27.8.1, SVG Export Plug-In . SVG Version: 6.00 Build 0)  -->
<svg version="1.1" id="Слой_1" xmlns="http://www.w3.org/2000/svg" xmlns:xlink="http://www.w3.org/1999/xlink" x="0px" y="0px"
	 viewBox="0 0 21 21" style="enable-background:new 0 0 21 21;" xml:space="preserve">
<style type="text/css">
	.st0{display:none;fill:#FF9933;}
	.st1{fill:none;stroke:#FFFFFF;stroke-width:1.4815;stroke-linecap:round;stroke-linejoin:round;}
	.st2{display:none;}
	.st3{display:inline;}
	.st4{display:inline;clip-path:url(#SVGID_00000147916315456909423690000004542770097424327866_);}
	.st5{fill:#CED7E0;}
</style>
<rect x="0" class="st0" width="21" height="21"/>
<path class="st1" d="M2.2,10.9c0.3,4.5,4.1,8.1,8.6,8.3c3.2,0.1,6-1.3,7.8-3.7c0.7-1,0.3-1.6-0.9-1.4c-0.6,0.1-1.2,0.1-1.8,0.1
	c-4.2-0.2-7.7-3.7-7.7-7.9c0-1.1,0.2-2.2,0.6-3.2C9.3,2.1,8.7,1.6,7.6,2C4.2,3.5,1.9,6.9,2.2,10.9z"/>
<g class="st2">
	<defs>
		<rect id="SVGID_1_" x="0.3" width="21" height="20"/>
	</defs>
	<clipPath id="SVGID_00000067935695604112659390000015710510368001130661_" class="st3">
		<use xlink:href="#SVGID_1_"  style="overflow:visible;"/>
	</clipPath>
	<g style="display:inline;clip-path:url(#SVGID_00000067935695604112659390000015710510368001130661_);">
		<path class="st5" d="M10.8,4.1c-3.4,0-6.2,2.7-6.2,5.9c0,3.3,2.8,5.9,6.2,5.9c3.4,0,6.2-2.7,6.2-5.9C17.1,6.8,14.3,4.1,10.8,4.1z
			 M10.8,14.4c-2.5,0-4.6-2-4.6-4.4c0-2.4,2.1-4.4,4.6-4.4c2.5,0,4.6,2,4.6,4.4C15.4,12.5,13.4,14.4,10.8,14.4z"/>
		<path class="st5" d="M10.8,2.9c0.5,0,0.8-0.4,0.8-0.8V1.2c0-0.4-0.4-0.8-0.8-0.8c-0.5,0-0.8,0.4-0.8,0.8v0.9
			C10,2.6,10.4,2.9,10.8,2.9z"/>
		<path class="st5" d="M10.8,17.1c-0.5,0-0.8,0.4-0.8,0.8v0.9c0,0.4,0.4,0.8,0.8,0.8c0.5,0,0.8-0.4,0.8-0.8v-0.9
			C11.7,17.4,11.3,17.1,10.8,17.1z"/>
		<path class="st5" d="M20,9.2h-0.9c-0.5,0-0.8,0.4-0.8,0.8c0,0.4,0.4,0.8,0.8,0.8H20c0.5,0,0.8-0.4,0.8-0.8
			C20.9,9.6,20.5,9.2,20,9.2z"/>
		<path class="st5" d="M2.6,9.2H1.6c-0.5,0-0.8,0.4-0.8,0.8c0,0.4,0.4,0.8,0.8,0.8h0.9c0.5,0,0.8-0.4,0.8-0.8C3.4,9.6,3,9.2,2.6,9.2
			z"/>
		<path class="st5" d="M16.8,3.2l-0.7,0.6c-0.3,0.3-0.3,0.8,0,1.1c0.3,0.3,0.9,0.3,1.2,0l0.7-0.6c0.3-0.3,0.3-0.8,0-1.1
			C17.6,2.9,17.1,2.9,16.8,3.2z"/>
		<path class="st5" d="M4.4,15l-0.7,0.6c-0.3,0.3-0.3,0.8,0,1.1c0.3,0.3,0.9,0.3,1.2,0l0.7-0.6c0.3-0.3,0.3-0.8,0-1.1
			C5.3,14.7,4.7,14.7,4.4,15z"/>
		<path class="st5" d="M17.3,15c-0.3-0.3-0.9-0.3-1.2,0c-0.3,0.3-0.3,0.8,0,1.1l0.7,0.6c0.3,0.3,0.9,0.3,1.2,0
			c0.3-0.3,0.3-0.8,0-1.1L17.3,15z"/>
		<path class="st5" d="M4.4,5c0.3,0.3,0.9,0.3,1.2,0c0.3-0.3,0.3-0.8,0-1.1L4.9,3.2c-0.3-0.3-0.9-0.3-1.2,0c-0.3,0.3-0.3,0.8,0,1.1
			L4.4,5z"/>
	</g>
</g>
</svg>
