<?xml version="1.0" encoding="utf-8"?>
<!-- Generator: Adobe Illustrator 27.8.1, SVG Export Plug-In . SVG Version: 6.00 Build 0)  -->
<svg version="1.1" id="Слой_1" xmlns="http://www.w3.org/2000/svg" xmlns:xlink="http://www.w3.org/1999/xlink" x="0px" y="0px"
	 viewBox="0 0 21 21" style="enable-background:new 0 0 21 21;" xml:space="preserve">
<style type="text/css">
	.st0{display:none;fill:#FF9933;}
	.st1{fill:none;stroke:#CED7E0;stroke-width:1.4815;stroke-linecap:round;stroke-linejoin:round;}
	.st2{display:none;}
	.st3{display:inline;}
	.st4{display:inline;clip-path:url(#SVGID_00000031917632577373289070000017756689306092530340_);}
	.st5{fill:#FFFFFF;}
</style>
<rect x="0" class="st0" width="21" height="21"/>
<path class="st1" d="M2.2,10.9c0.3,4.5,4.1,8.1,8.6,8.3c3.2,0.1,6-1.3,7.8-3.7c0.7-1,0.3-1.6-0.9-1.4c-0.6,0.1-1.2,0.1-1.8,0.1
	c-4.2-0.2-7.7-3.7-7.7-7.9c0-1.1,0.2-2.2,0.6-3.2C9.3,2.1,8.7,1.6,7.6,2C4.2,3.5,1.9,6.9,2.2,10.9z"/>
<g class="st2">
	<defs>
		<rect id="SVGID_1_" y="0.5" width="21" height="20"/>
	</defs>
	<clipPath id="SVGID_00000154393437779915002250000002380003180050885763_" class="st3">
		<use xlink:href="#SVGID_1_"  style="overflow:visible;"/>
	</clipPath>
	<g style="display:inline;clip-path:url(#SVGID_00000154393437779915002250000002380003180050885763_);">
		<path class="st5" d="M10.5,4.6c-3.4,0-6.2,2.7-6.2,5.9c0,3.3,2.8,5.9,6.2,5.9c3.4,0,6.2-2.7,6.2-5.9C16.7,7.3,13.9,4.6,10.5,4.6z
			 M10.5,14.9c-2.5,0-4.6-2-4.6-4.4c0-2.4,2.1-4.4,4.6-4.4c2.5,0,4.6,2,4.6,4.4C15.1,13,13,14.9,10.5,14.9z"/>
		<path class="st5" d="M10.5,3.4c0.5,0,0.8-0.4,0.8-0.8V1.7c0-0.4-0.4-0.8-0.8-0.8c-0.5,0-0.8,0.4-0.8,0.8v0.9
			C9.7,3.1,10,3.4,10.5,3.4z"/>
		<path class="st5" d="M10.5,17.6c-0.5,0-0.8,0.4-0.8,0.8v0.9c0,0.4,0.4,0.8,0.8,0.8c0.5,0,0.8-0.4,0.8-0.8v-0.9
			C11.3,17.9,11,17.6,10.5,17.6z"/>
		<path class="st5" d="M19.7,9.7h-0.9c-0.5,0-0.8,0.4-0.8,0.8c0,0.4,0.4,0.8,0.8,0.8h0.9c0.5,0,0.8-0.4,0.8-0.8
			C20.5,10.1,20.2,9.7,19.7,9.7z"/>
		<path class="st5" d="M2.2,9.7H1.3c-0.5,0-0.8,0.4-0.8,0.8c0,0.4,0.4,0.8,0.8,0.8h0.9c0.5,0,0.8-0.4,0.8-0.8
			C3.1,10.1,2.7,9.7,2.2,9.7z"/>
		<path class="st5" d="M16.4,3.7l-0.7,0.6c-0.3,0.3-0.3,0.8,0,1.1c0.3,0.3,0.9,0.3,1.2,0l0.7-0.6c0.3-0.3,0.3-0.8,0-1.1
			C17.3,3.4,16.7,3.4,16.4,3.7z"/>
		<path class="st5" d="M4.1,15.5l-0.7,0.6c-0.3,0.3-0.3,0.8,0,1.1c0.3,0.3,0.9,0.3,1.2,0l0.7-0.6c0.3-0.3,0.3-0.8,0-1.1
			C4.9,15.2,4.4,15.2,4.1,15.5z"/>
		<path class="st5" d="M16.9,15.5c-0.3-0.3-0.9-0.3-1.2,0c-0.3,0.3-0.3,0.8,0,1.1l0.7,0.6c0.3,0.3,0.9,0.3,1.2,0
			c0.3-0.3,0.3-0.8,0-1.1L16.9,15.5z"/>
		<path class="st5" d="M4.1,5.5c0.3,0.3,0.9,0.3,1.2,0c0.3-0.3,0.3-0.8,0-1.1L4.6,3.7c-0.3-0.3-0.9-0.3-1.2,0C3.1,4,3.1,4.6,3.4,4.9
			L4.1,5.5z"/>
	</g>
</g>
</svg>
