<svg width="25" height="24" viewBox="0 0 25 24" fill="none" xmlns="http://www.w3.org/2000/svg">
<path d="M20.8449 20.3724C20.3762 20.1576 19.9609 19.9439 19.5752 19.719C19.4076 19.6211 19.1923 19.6778 19.0944 19.8455C18.9967 20.0133 19.0533 20.2285 19.221 20.3263C19.6268 20.5629 20.0622 20.7871 20.5522 21.0116C21.2025 21.3093 21.5825 21.8055 21.5437 22.3066C21.5111 22.7294 21.1822 23.0692 20.6638 23.2155C20.4727 23.2695 20.258 23.2969 20.0258 23.2969H17.0398C14.9678 23.2969 13.4637 22.1835 12.6975 21.4497V20.6921C12.6975 20.4979 12.54 20.3406 12.3459 20.3406C12.1517 20.3406 11.9944 20.498 11.9944 20.6922V21.9793C11.9944 22.7058 11.4034 23.2969 10.6768 23.2969H7.98378C6.89249 23.2969 6.1303 22.8335 6.1303 22.17C6.1303 21.6272 6.63369 21.2108 7.44397 21.0834C7.56941 21.0637 7.67446 20.9778 7.7188 20.8589C7.76314 20.7399 7.73989 20.6063 7.65796 20.5093C6.79522 19.4878 6.40246 17.9931 6.68056 16.7899C6.89624 15.857 7.49136 15.1116 8.40997 14.6166C8.89986 14.3534 9.44553 14.1798 9.98807 14.0696C10.1784 14.031 10.3013 13.8454 10.2627 13.6551C10.224 13.4648 10.0385 13.3419 9.84819 13.3805C9.52358 13.4464 9.21613 13.53 8.92667 13.6295C8.91116 13.3503 8.88763 13.0523 8.85608 12.7369C8.9976 12.6881 9.13808 12.6359 9.27622 12.5798C9.77905 12.3758 10.2169 12.1452 10.5776 11.8943C10.737 11.7834 10.7763 11.5643 10.6655 11.4049C10.5546 11.2456 10.3355 11.2062 10.1761 11.3171C9.59582 11.7207 8.96666 11.9591 8.35855 12.1617C6.90758 12.6451 5.82083 12.4594 5.6736 12.0964C5.50517 11.6811 6.40002 10.6157 8.18567 9.89138C8.83799 9.62672 9.43939 9.48202 9.92483 9.47283C10.119 9.46913 10.2733 9.30877 10.2697 9.11461C10.266 8.92275 10.1094 8.76971 9.91832 8.76971C9.91607 8.76971 9.91377 8.76971 9.91152 8.76975C9.42379 8.77904 8.87146 8.89313 8.26597 9.10871C8.14822 8.57579 8.0225 8.07394 7.89022 7.60833C8.12858 7.58194 8.37491 7.54936 8.62911 7.51004C8.82102 7.48032 8.9525 7.30069 8.92278 7.10879C8.89311 6.91693 8.71335 6.786 8.52158 6.81511C8.0023 6.8955 7.45771 6.95691 6.93069 6.9774C5.57619 7.02957 4.6108 6.7988 4.05786 6.28871C3.65117 5.91352 3.45345 5.38224 3.45345 4.66454C3.45345 4.24341 3.54444 3.82454 3.72397 3.41949C3.80263 3.24197 3.72252 3.03427 3.545 2.95561C3.36748 2.87677 3.15983 2.95702 3.08113 3.13454C2.86161 3.62991 2.75033 4.14465 2.75033 4.66449C2.75033 5.57658 3.02984 6.29691 3.58114 6.8055C4.48888 7.64288 5.94519 7.74216 7.17669 7.66969C7.32721 8.18747 7.47294 8.76816 7.60489 9.37575C5.99858 10.1053 4.60897 11.3423 5.02203 12.3606C5.24558 12.9116 5.89227 13.1409 6.70194 13.1409C7.15531 13.1409 7.65978 13.0686 8.1696 12.9411C8.20246 13.2901 8.225 13.6159 8.23663 13.9142C7.01192 14.5181 6.26249 15.4765 5.99553 16.6314C5.70355 17.8946 6.01381 19.368 6.78875 20.5223C5.94617 20.8107 5.42717 21.4208 5.42717 22.17C5.42717 23.2475 6.47849 24 7.98383 24H10.6768C11.6618 24 12.4843 23.2916 12.662 22.3577C13.5892 23.1199 15.0836 24 17.0398 24H20.0257C20.3226 24 20.6016 23.9637 20.8548 23.8921C21.6566 23.6658 22.1892 23.079 22.2447 22.3606C22.3068 21.5579 21.7703 20.796 20.8449 20.3724Z" fill="#EDF2F7"/>
<path d="M4.63925 2.15016C5.77882 1.06767 7.45484 0.531753 9.0132 0.751315C12.0208 1.17549 13.3743 5.88488 13.6999 8.60072C14.0701 11.6851 14.4698 13.6737 15.0363 15.2502C15.6181 16.8691 16.4558 18.2358 17.8152 19.3562C17.9647 19.4793 18.1863 19.4587 18.3101 19.3085C18.4336 19.1586 18.4122 18.937 18.2624 18.8135C17.8619 18.4835 17.5062 18.1299 17.1877 17.7421C17.5894 17.4406 17.9916 16.9738 18.2943 16.444C18.5031 16.0786 18.9547 15.1549 18.6396 14.4723C18.5107 14.1934 18.1188 13.6914 16.9424 13.4624C16.3455 13.3463 15.7251 13.3461 15.2303 13.4534C15.1255 13.0344 15.0269 12.5831 14.9327 12.0921C16.0352 11.7417 17.579 10.234 17.343 9.12286C17.1286 8.11205 15.3862 7.38 14.2201 7.37311C14.1669 7.09093 14.1013 6.77954 14.0213 6.44869C14.0285 6.44532 14.0356 6.44241 14.0428 6.43894C14.5536 6.19111 15.1138 5.598 15.5048 4.89122C15.7114 4.51772 16.156 3.5753 15.8243 2.89186C15.4929 2.2081 14.4773 1.97433 14.056 1.90561C13.3471 1.78983 12.6267 1.83525 12.1166 2.02097C11.2707 0.87769 10.2644 0.217831 9.11145 0.0552212C7.34571 -0.193591 5.44648 0.413815 4.15508 1.64058C4.01431 1.77432 4.00859 1.99683 4.14233 2.13764C4.27592 2.27817 4.49848 2.28394 4.63925 2.15016ZM18.0012 14.767C18.2403 15.2851 17.5224 16.6212 16.7685 17.1803C16.1458 16.2602 15.7263 15.2085 15.413 14.1311C16.3354 13.9402 17.7668 14.2599 18.0012 14.767ZM16.6551 9.26874C16.7787 9.85065 15.6799 11.0743 14.8063 11.3939C14.5434 9.85622 14.4226 8.64272 14.3385 8.0761C15.2827 8.11908 16.5409 8.73038 16.6551 9.26874ZM13.9426 2.59936C14.5749 2.70258 15.0651 2.93771 15.1916 3.19857C15.3182 3.45933 15.1996 3.99005 14.8894 4.55068C14.6024 5.06949 14.1917 5.53402 13.8372 5.74983C13.5288 4.67086 13.1 3.57755 12.5244 2.63011C12.9103 2.532 13.439 2.51714 13.9426 2.59936Z" fill="#EDF2F7"/>
<path d="M6.44548 2.76404V3.06141C6.44548 3.25562 6.60289 3.41298 6.79705 3.41298C6.99121 3.41298 7.14861 3.25562 7.14861 3.06141V2.76404C7.14861 2.56983 6.99121 2.41248 6.79705 2.41248C6.60289 2.41248 6.44548 2.56983 6.44548 2.76404Z" fill="#EDF2F7"/>
</svg>
