<svg width="24" height="24" viewBox="0 0 24 24" fill="none" xmlns="http://www.w3.org/2000/svg">
<mask id="path-1-inside-1_229_100" fill="white">
<path fill-rule="evenodd" clip-rule="evenodd" d="M16 6C16 8.20914 14.2091 10 12 10C9.79086 10 8 8.20914 8 6C8 3.79086 9.79086 2 12 2C14.2091 2 16 3.79086 16 6ZM12 12C15.3137 12 18 9.31371 18 6C18 2.68629 15.3137 0 12 0C8.68629 0 6 2.68629 6 6C6 9.31371 8.68629 12 12 12ZM24 22C24 24 22 24 22 24H2C2 24 0 24 0 22C0 20 2 14 12 14C22 14 24 20 24 22ZM22 21.993C21.9971 21.4995 21.6925 20.0209 20.3358 18.6642C19.0313 17.3597 16.5782 16 12 16C7.42177 16 4.96872 17.3597 3.6642 18.6642C2.30752 20.0209 2.00286 21.4995 2.00001 21.993H22Z"/>
</mask>
<path d="M22 21.993V22.993H23.0058L23 21.9873L22 21.993ZM3.6642 18.6642L4.37131 19.3713V19.3713L3.6642 18.6642ZM2.00001 21.993L1.00003 21.9873L0.994222 22.993H2.00001V21.993ZM12 11C14.7614 11 17 8.76142 17 6H15C15 7.65685 13.6569 9 12 9V11ZM7 6C7 8.76142 9.23858 11 12 11V9C10.3431 9 9 7.65685 9 6H7ZM12 1C9.23858 1 7 3.23858 7 6H9C9 4.34315 10.3431 3 12 3V1ZM17 6C17 3.23858 14.7614 1 12 1V3C13.6569 3 15 4.34315 15 6H17ZM17 6C17 8.76142 14.7614 11 12 11V13C15.866 13 19 9.86599 19 6H17ZM12 1C14.7614 1 17 3.23858 17 6H19C19 2.13401 15.866 -1 12 -1V1ZM7 6C7 3.23858 9.23858 1 12 1V-1C8.13401 -1 5 2.13401 5 6H7ZM12 11C9.23858 11 7 8.76142 7 6H5C5 9.86599 8.13401 13 12 13V11ZM22 24C22 25 22.0005 25 22.001 25C22.0012 25 22.0017 25 22.0021 25C22.0028 25 22.0035 25 22.0043 25C22.0059 25 22.0076 25 22.0094 25C22.013 24.9999 22.0172 24.9999 22.0219 24.9998C22.0312 24.9997 22.0425 24.9994 22.0558 24.999C22.0822 24.9981 22.1164 24.9965 22.1572 24.9936C22.2385 24.9877 22.348 24.9766 22.4769 24.9551C22.7299 24.913 23.0825 24.8268 23.4472 24.6444C23.8158 24.4601 24.2149 24.1679 24.5196 23.711C24.8284 23.2477 25 22.675 25 22H23C23 22.325 22.9216 22.5023 22.8554 22.6015C22.7851 22.7071 22.6842 22.7899 22.5528 22.8556C22.4175 22.9232 22.2701 22.962 22.1481 22.9824C22.0895 22.9921 22.0428 22.9966 22.0147 22.9986C22.0008 22.9996 21.992 23 21.9891 23.0001C21.9877 23.0001 21.9879 23.0001 21.9896 23.0001C21.9905 23.0001 21.9918 23 21.9935 23C21.9944 23 21.9953 23 21.9964 23C21.997 23 21.9975 23 21.9981 23C21.9984 23 21.9989 23 21.999 23C21.9995 23 22 23 22 24ZM2 25H22V23H2V25ZM-1 22C-1 22.675 -0.82838 23.2477 -0.51955 23.711C-0.214893 24.1679 0.184156 24.4601 0.552786 24.6444C0.917501 24.8268 1.27011 24.913 1.5231 24.9551C1.65197 24.9766 1.76154 24.9877 1.84282 24.9936C1.88362 24.9965 1.91778 24.9981 1.94422 24.999C1.95746 24.9994 1.96881 24.9997 1.97814 24.9998C1.9828 24.9999 1.98697 24.9999 1.99061 25C1.99244 25 1.99413 25 1.9957 25C1.99648 25 1.99723 25 1.99795 25C1.99831 25 1.99882 25 1.999 25C1.9995 25 2 25 2 24C2 23 2.00048 23 2.00096 23C2.0011 23 2.00157 23 2.00187 23C2.00246 23 2.00303 23 2.00357 23C2.00465 23 2.00562 23 2.00649 23C2.00821 23 2.00951 23.0001 2.01039 23.0001C2.01215 23.0001 2.01227 23.0001 2.01085 23.0001C2.008 23 1.99919 22.9996 1.98531 22.9986C1.95721 22.9966 1.91053 22.9921 1.8519 22.9824C1.72989 22.962 1.5825 22.9232 1.44721 22.8556C1.31584 22.7899 1.21489 22.7071 1.14455 22.6015C1.07838 22.5023 1 22.325 1 22H-1ZM12 13C6.78911 13 3.51564 14.5702 1.54289 16.5429C-0.400544 18.4863 -1 20.7432 -1 22H1C1 21.2568 1.40054 19.5137 2.95711 17.9571C4.48436 16.4298 7.21089 15 12 15V13ZM25 22C25 20.7432 24.4005 18.4863 22.4571 16.5429C20.4844 14.5702 17.2109 13 12 13V15C16.7891 15 19.5156 16.4298 21.0429 17.9571C22.5995 19.5137 23 21.2568 23 22H25ZM19.6287 19.3713C20.7923 20.5349 20.9986 21.7585 21 21.9988L23 21.9873C22.9956 21.2405 22.5926 19.5069 21.0429 17.9571L19.6287 19.3713ZM12 17C16.3667 17 18.5466 18.2892 19.6287 19.3713L21.0429 17.9571C19.516 16.4302 16.7897 15 12 15V17ZM4.37131 19.3713C5.45343 18.2892 7.63324 17 12 17V15C7.2103 15 4.48401 16.4302 2.9571 17.9571L4.37131 19.3713ZM2.99999 21.9988C3.00138 21.7585 3.2077 20.5349 4.37131 19.3713L2.9571 17.9571C1.40734 19.5069 1.00434 21.2405 1.00003 21.9873L2.99999 21.9988ZM22 20.993H2.00001V22.993H22V20.993Z" fill="#EDF2F7" mask="url(#path-1-inside-1_229_100)"/>
</svg>
