<svg width="24" height="24" viewBox="0 0 24 24" fill="none" xmlns="http://www.w3.org/2000/svg">
<g clip-path="url(#clip0_229_91)">
<mask id="path-1-inside-1_229_91" fill="white">
<path d="M7.10909 7.08625C6.7282 5.06412 5.40635 3.35449 3.82566 3.35449C2.24584 3.35449 1.21484 5.55846 1.21484 7.61988C1.21484 9.6813 2.91932 11.2639 4.49914 11.2639C6.08069 11.2639 7.5298 9.30757 7.10909 7.08625Z"/>
</mask>
<path d="M7.10909 7.08625C6.7282 5.06412 5.40635 3.35449 3.82566 3.35449C2.24584 3.35449 1.21484 5.55846 1.21484 7.61988C1.21484 9.6813 2.91932 11.2639 4.49914 11.2639C6.08069 11.2639 7.5298 9.30757 7.10909 7.08625Z" stroke="#EDF2F7" stroke-width="3" mask="url(#path-1-inside-1_229_91)"/>
<mask id="path-2-inside-2_229_91" fill="white">
<path d="M10.0503 8.80497C11.5722 9.25088 13.4662 7.77882 13.6264 5.51912C13.7701 3.46318 12.9356 1.44106 11.4103 0.99332C9.88672 0.545583 8.33549 2.37856 7.8135 4.36414C7.28978 6.35064 8.52853 8.35631 10.0503 8.80497Z"/>
</mask>
<path d="M10.0503 8.80497C11.5722 9.25088 13.4662 7.77882 13.6264 5.51912C13.7701 3.46318 12.9356 1.44106 11.4103 0.99332C9.88672 0.545583 8.33549 2.37856 7.8135 4.36414C7.28978 6.35064 8.52853 8.35631 10.0503 8.80497Z" stroke="#EDF2F7" stroke-width="3" mask="url(#path-2-inside-2_229_91)"/>
<mask id="path-3-inside-3_229_91" fill="white">
<path d="M19.711 9.62554C20.6346 7.80901 20.6502 5.60322 19.4288 4.54144C18.2125 3.47783 16.0882 4.48753 14.8434 6.07837C13.5994 7.66646 13.9595 10.0312 15.1801 11.0948C16.399 12.1566 18.6955 11.623 19.711 9.62554Z"/>
</mask>
<path d="M19.711 9.62554C20.6346 7.80901 20.6502 5.60322 19.4288 4.54144C18.2125 3.47783 16.0882 4.48753 14.8434 6.07837C13.5994 7.66646 13.9595 10.0312 15.1801 11.0948C16.399 12.1566 18.6955 11.623 19.711 9.62554Z" stroke="#EDF2F7" stroke-width="3" mask="url(#path-3-inside-3_229_91)"/>
<mask id="path-4-inside-4_229_91" fill="white">
<path d="M23.7818 12.3403C23.1507 10.9788 21.0333 10.9696 19.4388 11.792C17.8443 12.6126 17.298 14.7133 17.9291 16.0757C18.5602 17.439 20.6524 17.9086 22.2037 16.6614C23.6164 15.5238 24.412 13.7036 23.7818 12.3403Z"/>
</mask>
<path d="M23.7818 12.3403C23.1507 10.9788 21.0333 10.9696 19.4388 11.792C17.8443 12.6126 17.298 14.7133 17.9291 16.0757C18.5602 17.439 20.6524 17.9086 22.2037 16.6614C23.6164 15.5238 24.412 13.7036 23.7818 12.3403Z" stroke="#EDF2F7" stroke-width="3" mask="url(#path-4-inside-4_229_91)"/>
<mask id="path-5-inside-5_229_91" fill="white">
<path d="M11.3197 10.1071C7.53682 9.85947 2.81641 12.8894 2.81641 16.5965C2.81641 20.3036 6.85555 23.2029 10.6462 23.2642C16.4981 23.3519 17.7801 20.1071 17.1309 16.4631C16.4556 12.6866 14.0145 10.2862 11.3197 10.1071Z"/>
</mask>
<path d="M11.3197 10.1071C7.53682 9.85947 2.81641 12.8894 2.81641 16.5965C2.81641 20.3036 6.85555 23.2029 10.6462 23.2642C16.4981 23.3519 17.7801 20.1071 17.1309 16.4631C16.4556 12.6866 14.0145 10.2862 11.3197 10.1071Z" stroke="#EDF2F7" stroke-width="3" mask="url(#path-5-inside-5_229_91)"/>
</g>
<defs>
<clipPath id="clip0_229_91">
<rect width="24" height="24" fill="white"/>
</clipPath>
</defs>
</svg>
