<svg width="20" height="20" viewBox="0 0 20 20" fill="none" xmlns="http://www.w3.org/2000/svg">
<path fill-rule="evenodd" clip-rule="evenodd" d="M5.5 5.5C6.07 5.5 6.5 5.3 6.84 4.98C7.08 4.74 7.27 4.44 7.39 4.24L7.45 4.14C7.6 3.91 7.71 3.77 7.84 3.67C7.95 3.59 8.14 3.5 8.5 3.5H11.5C11.86 3.5 12.05 3.59 12.16 3.67C12.29 3.77 12.4 3.91 12.56 4.15L12.61 4.24C12.73 4.44 12.91 4.74 13.16 4.98C13.49 5.3 13.93 5.5 14.5 5.5C15.23 5.5 15.49 5.5 15.69 5.54C16.59 5.72 17.28 6.42 17.46 7.31C17.5 7.51 17.5 7.77 17.5 8.5V11.95C17.5 12.8 17.5 13.4 17.46 13.85C17.42 14.31 17.36 14.57 17.26 14.77C17.04 15.19 16.69 15.54 16.27 15.75C16.07 15.85 15.81 15.92 15.36 15.96C14.9 16 14.3 16 13.45 16H6.55C5.7 16 5.1 16 4.64 15.96C4.32651 15.9534 4.01736 15.8855 3.73 15.76C3.30311 15.5437 2.95632 15.1969 2.74 14.77C2.61453 14.4826 2.54658 14.1735 2.54 13.86C2.5 13.4 2.5 12.8 2.5 11.95V8.5C2.5 7.77 2.5 7.51 2.54 7.31C2.72 6.41 3.42 5.72 4.31 5.54C4.51 5.5 4.77 5.5 5.5 5.5ZM8.5 2C7.86 2 7.36 2.16 6.96 2.46C6.57 2.73 6.34 3.09 6.18 3.36L6.1 3.47C5.97 3.69 5.9 3.81 5.8 3.9C5.74 3.95 5.68 4 5.5 4H5.41C4.8 4 4.38 4 4.01 4.07C3.28325 4.21608 2.61609 4.57427 2.09281 5.09933C1.56953 5.62439 1.21361 6.29275 1.07 7.02C1 7.38 1 7.8 1 8.42V11.98C1 12.79 1 13.45 1.04 13.98C1.09 14.53 1.18 15.01 1.41 15.45C1.77 16.15 2.34 16.73 3.05 17.09C3.49 17.32 3.97 17.41 4.52 17.46C5.05 17.5 5.7 17.5 6.52 17.5H13.48C14.29 17.5 14.95 17.5 15.48 17.46C15.9897 17.4356 16.4895 17.3098 16.95 17.09C17.65 16.73 18.23 16.16 18.59 15.45C18.82 15.01 18.91 14.53 18.96 13.98C19 13.45 19 12.79 19 11.98V8.41C19 7.8 19 7.38 18.93 7.01C18.7839 6.28325 18.4257 5.61609 17.9007 5.09281C17.3756 4.56953 16.7072 4.21361 15.98 4.07C15.5165 4.00301 15.0478 3.97958 14.58 4H14.5C14.32 4 14.26 3.95 14.2 3.9C14.1 3.8 14.03 3.7 13.9 3.47L13.82 3.35C13.66 3.09 13.42 2.73 13.04 2.45C12.64 2.16 12.14 2 11.5 2H8.5ZM12.25 10.25C12.25 10.5455 12.1918 10.8381 12.0787 11.111C11.9657 11.384 11.7999 11.6321 11.591 11.841C11.3821 12.0499 11.134 12.2157 10.861 12.3287C10.5881 12.4418 10.2955 12.5 10 12.5C9.70453 12.5 9.41194 12.4418 9.13896 12.3287C8.86598 12.2157 8.61794 12.0499 8.40901 11.841C8.20008 11.6321 8.03434 11.384 7.92127 11.111C7.8082 10.8381 7.75 10.5455 7.75 10.25C7.75 9.65326 7.98705 9.08097 8.40901 8.65901C8.83097 8.23705 9.40326 8 10 8C10.5967 8 11.169 8.23705 11.591 8.65901C12.0129 9.08097 12.25 9.65326 12.25 10.25ZM13.75 10.25C13.75 10.7425 13.653 11.2301 13.4645 11.6851C13.2761 12.14 12.9999 12.5534 12.6517 12.9017C12.3034 13.2499 11.89 13.5261 11.4351 13.7145C10.9801 13.903 10.4925 14 10 14C9.50754 14 9.01991 13.903 8.56494 13.7145C8.10997 13.5261 7.69657 13.2499 7.34835 12.9017C7.00013 12.5534 6.72391 12.14 6.53545 11.6851C6.347 11.2301 6.25 10.7425 6.25 10.25C6.25 9.25544 6.64509 8.30161 7.34835 7.59835C8.05161 6.89509 9.00544 6.5 10 6.5C10.9946 6.5 11.9484 6.89509 12.6517 7.59835C13.3549 8.30161 13.75 9.25544 13.75 10.25Z" fill="#EDF2F7"/>
</svg>
