<svg width="24.000000" height="24.000000" viewBox="0 0 24 24" fill="none" xmlns="http://www.w3.org/2000/svg" xmlns:xlink="http://www.w3.org/1999/xlink">
	<desc>
			Created with Pixso.
	</desc>
	<defs/>
	<path id="Vector" d="M24 9.86L24 11.82C24 12.1 23.78 12.32 23.5 12.32C23.22 12.32 23 12.1 23 11.82L23 9.86C23 9.58 23.22 9.36 23.5 9.36C23.78 9.36 24 9.58 24 9.86Z" fill="#EDF2F7" fill-opacity="1.000000" fill-rule="nonzero"/>
	<path id="Vector" d="M24 21.5C24 21.57 24 21.64 23.99 21.72C23.97 21.98 23.75 22.16 23.49 22.16C23.48 22.16 23.46 22.16 23.45 22.16C23.17 22.14 22.97 21.89 22.99 21.62C23 21.58 23 21.55 23 21.5L23 19.7C23 19.42 23.22 19.2 23.5 19.2C23.78 19.2 24 19.42 24 19.7L24 21.5Z" fill="#EDF2F7" fill-opacity="1.000000" fill-rule="nonzero"/>
	<path id="Vector" d="M24 6.9C24 7.18 23.78 7.4 23.5 7.4C23.26 7.4 23.06 7.23 23.01 7.01C23 6.97 23 6.93 23 6.9L23 4.94C23 4.66 23.22 4.44 23.5 4.44C23.78 4.44 24 4.66 24 4.94L24 6.9Z" fill="#EDF2F7" fill-opacity="1.000000" fill-rule="nonzero"/>
	<path id="Vector" d="M23.5 14.27C23.78 14.27 24 14.5 24 14.77L24 16.74C24 17.02 23.78 17.24 23.5 17.24C23.22 17.24 23 17.02 23 16.74L23 14.77C23 14.5 23.22 14.27 23.5 14.27Z" fill="#EDF2F7" fill-opacity="1.000000" fill-rule="nonzero"/>
	<path id="Vector" d="M23.92 1.86C23.99 2.13 23.83 2.41 23.56 2.47C23.52 2.48 23.48 2.49 23.44 2.49C23.21 2.49 23.01 2.34 22.95 2.11C22.83 1.63 22.47 1.24 21.99 1.07C21.78 1 21.65 0.81 21.65 0.6C21.65 0.55 21.66 0.49 21.68 0.44C21.77 0.18 22.06 0.04 22.32 0.13C23.11 0.4 23.71 1.05 23.92 1.86Z" fill="#EDF2F7" fill-opacity="1.000000" fill-rule="nonzero"/>
	<path id="Vector" d="M22.01 23.5C22.01 23.78 21.8 24 21.52 24L19.53 24C19.26 24 19.03 23.78 19.03 23.5C19.03 23.23 19.26 23 19.53 23L21.5 23C21.78 23 22.01 23.23 22.01 23.5Z" fill="#EDF2F7" fill-opacity="1.000000" fill-rule="nonzero"/>
	<path id="Vector" d="M21 13.99C21 14.11 20.96 14.24 20.87 14.33C20.77 14.45 20.64 14.49 20.5 14.49C20.37 14.49 20.26 14.46 20.17 14.37L20 14.23L20 12.86L20.84 13.62C20.95 13.73 21 13.86 21 13.99Z" fill="#EDF2F7" fill-opacity="1.000000" fill-rule="nonzero"/>
	<path id="Vector" d="M19.2 0C19.49 0 19.7 0.22 19.7 0.5C19.7 0.54 19.7 0.57 19.7 0.6C19.65 0.83 19.45 1 19.2 1L17.25 1C16.96 1 16.75 0.78 16.75 0.5C16.75 0.22 16.96 0 17.25 0L19.2 0Z" fill="#EDF2F7" fill-opacity="1.000000" fill-rule="nonzero"/>
	<path id="Vector" d="M16.58 23C16.86 23 17.08 23.23 17.08 23.5C17.08 23.78 16.86 24 16.58 24L14.61 24C14.34 24 14.11 23.78 14.11 23.5C14.11 23.23 14.34 23 14.61 23L16.58 23Z" fill="#EDF2F7" fill-opacity="1.000000" fill-rule="nonzero"/>
	<path id="Vector" d="M20.87 14.34C20.96 14.24 21 14.12 21 14L21 16.5C21 17.33 20.33 18 19.5 18L16 18C16.15 18 16.29 17.93 16.39 17.82C16.56 17.6 16.53 17.29 16.31 17.11L16.17 17L19.5 17C19.77 17 20 16.78 20 16.5L20 14.23L20.17 14.37C20.26 14.46 20.37 14.5 20.5 14.5C20.64 14.5 20.77 14.45 20.87 14.34Z" fill="#EDF2F7" fill-opacity="1.000000" fill-rule="nonzero"/>
	<path id="Vector" d="M15.69 17.88L14.58 17L16.17 17L16.31 17.11C16.53 17.29 16.56 17.6 16.39 17.82C16.29 17.93 16.15 18 16 18C15.89 18 15.78 17.96 15.69 17.88Z" fill="#EDF2F7" fill-opacity="1.000000" fill-rule="nonzero"/>
	<path id="Vector" d="M10.88 12.76L15.18 9.12C15.37 8.95 15.65 8.95 15.84 9.12L20 12.87L20 14.23L15.49 10.16L11.67 13.39L10.88 12.76Z" fill="#EDF2F7" fill-opacity="1.000000" fill-rule="nonzero"/>
	<path id="Vector" d="M14.3 0C14.57 0 14.8 0.22 14.8 0.5C14.8 0.78 14.57 1 14.3 1L12.33 1C12.05 1 11.83 0.78 11.83 0.5C11.83 0.22 12.05 0 12.33 0L14.3 0Z" fill="#EDF2F7" fill-opacity="1.000000" fill-rule="nonzero"/>
	<path id="Vector" d="M11.66 23C11.94 23 12.16 23.23 12.16 23.5C12.16 23.78 11.94 24 11.66 24L9.68 24C9.41 24 9.18 23.78 9.18 23.5C9.18 23.23 9.41 23 9.68 23L11.66 23Z" fill="#EDF2F7" fill-opacity="1.000000" fill-rule="nonzero"/>
	<path id="Vector" d="M11.2 13.79L11.67 13.39L16.17 17L14.58 17L10.62 13.83C10.8 13.95 11.03 13.93 11.2 13.79Z" fill="#EDF2F7" fill-opacity="1.000000" fill-rule="nonzero"/>
	<path id="Vector" d="M10.52 13.76L10.62 13.84C10.58 13.82 10.55 13.79 10.52 13.76Z" fill="#EDF2F7" fill-opacity="1.000000" fill-rule="nonzero"/>
	<path id="Vector" d="M10.88 12.76L11.67 13.39L11.2 13.8C11.03 13.93 10.8 13.95 10.62 13.84L10.52 13.76C10.51 13.75 10.51 13.75 10.5 13.74C10.32 13.53 10.35 13.21 10.56 13.03L10.88 12.76Z" fill="#EDF2F7" fill-opacity="1.000000" fill-rule="nonzero"/>
	<path id="Vector" d="M9.38 0C9.64 0 9.88 0.22 9.88 0.5C9.88 0.78 9.64 1 9.38 1L7.41 1C7.13 1 6.91 0.78 6.91 0.5C6.91 0.22 7.13 0 7.41 0L9.38 0Z" fill="#EDF2F7" fill-opacity="1.000000" fill-rule="nonzero"/>
	<path id="Vector" d="M8.47 12.12L4 15.25L4 14.03L8.21 11.08C8.39 10.96 8.64 10.96 8.81 11.1L10.88 12.75L10.56 13.02C10.35 13.21 10.32 13.52 10.5 13.73L8.47 12.12Z" fill="#EDF2F7" fill-opacity="1.000000" fill-rule="nonzero"/>
	<path id="Vector" d="M6.74 23C7.02 23 7.24 23.23 7.24 23.5C7.24 23.78 7.02 24 6.74 24L4.77 24C4.5 24 4.27 23.78 4.27 23.5C4.27 23.23 4.5 23 4.77 23L6.74 23Z" fill="#EDF2F7" fill-opacity="1.000000" fill-rule="nonzero"/>
	<path id="Vector" d="M4.46 0C4.73 0 4.96 0.22 4.96 0.5C4.96 0.78 4.73 1 4.46 1L2.5 1C2.32 1 2.17 0.9 2.08 0.78C2.02 0.69 1.99 0.6 1.99 0.5C1.99 0.22 2.21 0 2.49 0L4.46 0Z" fill="#EDF2F7" fill-opacity="1.000000" fill-rule="nonzero"/>
	<path id="Vector" d="M3.21 14.59L4 14.04L4 15.26L3.79 15.41C3.56 15.57 3.25 15.52 3.09 15.29C3.03 15.2 3 15.1 3 15C3 14.84 3.07 14.68 3.21 14.59Z" fill="#EDF2F7" fill-opacity="1.000000" fill-rule="nonzero"/>
	<path id="Vector" d="M4 16.5C4 16.78 4.21 17 4.5 17L14.58 17L15.69 17.88C15.78 17.96 15.89 18 16 18L4.5 18C3.67 18 3 17.33 3 16.5L3 15C3 15.1 3.03 15.2 3.09 15.29C3.25 15.52 3.56 15.57 3.79 15.4L4 15.26L4 16.5Z" fill="#EDF2F7" fill-opacity="1.000000" fill-rule="nonzero"/>
	<path id="Vector" d="M4 7.5L4 14.04L3.21 14.59C3.07 14.68 3 14.84 3 15L3 14.12L3 7.5C3 6.67 3.67 6 4.5 6L19.5 6C20.23 6 20.83 6.52 20.97 7.19C20.99 7.3 21 7.39 21 7.5L21 14C21 13.87 20.95 13.73 20.84 13.62L20 12.87L20 7.5C20 7.22 19.77 7 19.5 7L4.5 7C4.21 7 4 7.22 4 7.5Z" fill="#EDF2F7" fill-opacity="1.000000" fill-rule="nonzero"/>
	<path id="Vector" d="M0.07 22.11C0 21.84 0.16 21.57 0.43 21.51C0.7 21.43 0.97 21.6 1.04 21.86C1.16 22.35 1.53 22.75 2 22.91C2.26 23.01 2.4 23.3 2.31 23.56C2.23 23.76 2.04 23.88 1.84 23.88C1.78 23.88 1.72 23.87 1.67 23.85C0.87 23.57 0.27 22.92 0.07 22.11Z" fill="#EDF2F7" fill-opacity="1.000000" fill-rule="nonzero"/>
	<path id="Vector" d="M0.01 2.27C0.03 2.01 0.28 1.81 0.53 1.81L0.54 1.81C0.82 1.84 1.03 2.08 1.01 2.35C1 2.4 1 2.45 1 2.49L1 4.28C1 4.56 0.78 4.78 0.5 4.78C0.21 4.78 0 4.56 0 4.28L0 2.49C0 2.42 0 2.35 0.01 2.27Z" fill="#EDF2F7" fill-opacity="1.000000" fill-rule="nonzero"/>
	<path id="Vector" d="M1 12.15L1 14.12C1 14.4 0.78 14.62 0.5 14.62C0.21 14.62 0 14.4 0 14.12L0 12.15C0 11.88 0.21 11.65 0.5 11.65C0.78 11.65 1 11.88 1 12.15Z" fill="#EDF2F7" fill-opacity="1.000000" fill-rule="nonzero"/>
	<path id="Vector" d="M1 7.23L1 9.2C1 9.48 0.78 9.7 0.5 9.7C0.21 9.7 0 9.48 0 9.2L0 7.23C0 6.96 0.21 6.73 0.5 6.73C0.78 6.73 1 6.96 1 7.23Z" fill="#EDF2F7" fill-opacity="1.000000" fill-rule="nonzero"/>
	<path id="Vector" d="M0.5 16.57C0.78 16.57 1 16.8 1 17.07L1 19.04C1 19.32 0.78 19.54 0.5 19.54C0.21 19.54 0 19.32 0 19.04L0 17.07C0 16.8 0.21 16.57 0.5 16.57Z" fill="#EDF2F7" fill-opacity="1.000000" fill-rule="nonzero"/>
</svg>
