<svg width="21" height="22" viewBox="0 0 21 22" fill="none" xmlns="http://www.w3.org/2000/svg">
<path fill-rule="evenodd" clip-rule="evenodd" d="M9.03382 18.4305C9.48707 18.9594 10.0689 19.25 10.6727 19.25H10.6736C11.2799 19.25 11.8644 18.9594 12.3186 18.4296C12.5618 18.1482 12.9766 18.1253 13.2452 18.3792C13.5147 18.6331 13.5366 19.0685 13.2942 19.3499C12.5872 20.1722 11.6571 20.625 10.6736 20.625H10.6718C9.69094 20.6241 8.76257 20.1713 8.0582 19.349C7.81582 19.0676 7.83769 18.6322 8.10719 18.3792C8.37669 18.1244 8.79144 18.1473 9.03382 18.4305ZM10.7163 0.916687C14.6056 0.916687 17.2184 4.09019 17.2184 7.05377C17.2184 8.57819 17.5885 9.22444 17.9814 9.9101C18.3699 10.5866 18.81 11.3548 18.81 12.8068C18.5046 16.5165 14.8078 16.819 10.7163 16.819C6.62477 16.819 2.92702 16.5165 2.62513 12.8654C2.62252 11.3548 3.06265 10.5866 3.45115 9.9101L3.5883 9.66825C3.92599 9.06022 4.21415 8.39884 4.21415 7.05377C4.21415 4.09019 6.82689 0.916687 10.7163 0.916687ZM10.7163 2.29169C7.65814 2.29169 5.52664 4.80152 5.52664 7.05377C5.52664 8.95952 5.02177 9.84044 4.57552 10.6178C4.21765 11.242 3.93502 11.7352 3.93502 12.8068C4.08115 14.5356 5.17052 15.444 10.7163 15.444C16.2314 15.444 17.3549 14.4953 17.5001 12.7472C17.4975 11.7352 17.2149 11.242 16.857 10.6178C16.4108 9.84044 15.9059 8.95952 15.9059 7.05377C15.9059 4.80152 13.7744 2.29169 10.7163 2.29169Z" fill="#EDF2F7"/>
</svg>
