<svg width="31.999939" height="32.000000" viewBox="0 0 31.9999 32" fill="none" xmlns="http://www.w3.org/2000/svg" xmlns:xlink="http://www.w3.org/1999/xlink">
	<desc>
			Created with Pixso.
	</desc>
	<defs/>
	<path id="Vector" d="M31.52 18.77L27.65 19.74C27.44 20.38 27.19 21 26.88 21.59L28.94 25.01C29.08 25.26 29.04 25.57 28.84 25.78L25.78 28.84C25.57 29.04 25.26 29.08 25.01 28.94L21.59 26.88C21 27.19 20.38 27.44 19.74 27.65L18.77 31.52C18.7 31.8 18.45 32 18.16 32L13.83 32C13.54 32 13.29 31.8 13.22 31.52L12.25 27.65C11.61 27.44 10.99 27.19 10.4 26.88L6.98 28.94C6.73 29.08 6.42 29.04 6.21 28.84L3.15 25.78C2.95 25.57 2.91 25.26 3.05 25.01L5.11 21.59C4.8 21 4.55 20.38 4.34 19.74L0.47 18.77C0.19 18.7 0 18.45 0 18.16L0 13.83C0 13.54 0.19 13.29 0.47 13.22L4.34 12.25C4.55 11.61 4.8 10.99 5.11 10.4L3.05 6.98C2.91 6.73 2.95 6.42 3.15 6.21L6.21 3.15C6.42 2.95 6.73 2.91 6.98 3.05L10.4 5.11C10.99 4.8 11.61 4.55 12.25 4.34L13.22 0.47C13.29 0.19 13.54 0 13.83 0L18.16 0C18.45 0 18.7 0.19 18.77 0.47L19.74 4.34C20.38 4.55 21 4.8 21.59 5.11L25.01 3.05C25.26 2.91 25.57 2.95 25.78 3.15L28.84 6.21C29.04 6.42 29.08 6.73 28.94 6.98L26.88 10.4C27.19 10.99 27.44 11.61 27.65 12.25L31.52 13.22C31.8 13.29 31.99 13.54 31.99 13.83L31.99 18.16C32 18.45 31.8 18.7 31.52 18.77ZM30.75 14.32L27 13.38C26.79 13.33 26.62 13.16 26.55 12.95C26.32 12.15 26.01 11.39 25.62 10.68C25.51 10.49 25.51 10.25 25.63 10.06L27.61 6.75L25.24 4.38L21.93 6.36C21.74 6.48 21.5 6.48 21.31 6.37C20.6 5.98 19.83 5.66 19.04 5.44C18.83 5.37 18.66 5.2 18.61 4.99L17.67 1.25L14.32 1.25L13.38 4.99C13.33 5.2 13.16 5.37 12.95 5.44C12.16 5.66 11.39 5.98 10.68 6.37C10.49 6.48 10.25 6.48 10.06 6.36L6.75 4.38L4.38 6.75L6.36 10.06C6.48 10.25 6.48 10.49 6.37 10.68C5.98 11.39 5.67 12.15 5.44 12.95C5.38 13.16 5.2 13.33 4.99 13.38L1.25 14.32L1.25 17.67L4.99 18.61C5.2 18.66 5.38 18.83 5.44 19.04C5.67 19.84 5.98 20.6 6.37 21.31C6.48 21.5 6.48 21.74 6.36 21.93L4.38 25.24L6.75 27.61L10.06 25.63C10.25 25.51 10.49 25.51 10.68 25.62C11.4 26.01 12.16 26.33 12.95 26.55C13.16 26.61 13.33 26.79 13.38 27L14.32 30.75L17.67 30.75L18.61 27C18.66 26.79 18.83 26.61 19.04 26.55C19.83 26.33 20.59 26.01 21.31 25.62C21.5 25.51 21.74 25.51 21.93 25.63L25.24 27.61L27.61 25.24L25.63 21.93C25.51 21.74 25.51 21.5 25.62 21.31C26.01 20.6 26.32 19.84 26.55 19.04C26.62 18.83 26.79 18.66 27 18.61L30.75 17.67L30.75 14.32Z" fill="#EDF2F7" fill-opacity="1.000000" fill-rule="nonzero"/>
	<path id="Vector" d="M22.5 10.75C22.5 10.4 22.22 10.12 21.87 10.12C21.52 10.12 21.25 10.4 21.25 10.75C21.25 11.09 21.52 11.37 21.87 11.37C22.22 11.37 22.5 11.09 22.5 10.75Z" fill="#EDF2F7" fill-opacity="1.000000" fill-rule="evenodd"/>
	<path id="Vector" d="M16 24.5C11.31 24.5 7.5 20.68 7.5 16C7.5 11.31 11.31 7.5 16 7.5C17.37 7.5 18.73 7.83 19.94 8.47C20.25 8.63 20.36 9.01 20.2 9.31C20.04 9.62 19.66 9.73 19.36 9.57C18.33 9.03 17.17 8.75 16 8.75C12 8.75 8.75 12 8.75 16C8.75 19.99 12 23.25 16 23.25C19.99 23.25 23.25 19.99 23.25 16C23.25 15.09 23.08 14.21 22.75 13.37C22.63 13.05 22.79 12.69 23.11 12.56C23.43 12.44 23.79 12.6 23.92 12.92C24.3 13.9 24.5 14.93 24.5 16C24.5 20.68 20.68 24.5 16 24.5Z" fill="#EDF2F7" fill-opacity="1.000000" fill-rule="nonzero"/>
</svg>
