<svg width="13" height="12" viewBox="0 0 13 12" fill="none" xmlns="http://www.w3.org/2000/svg">
<path d="M6.50001 2.47247C4.36974 2.47247 2.63556 4.07325 2.63556 6.03966C2.63556 8.00607 4.36974 9.60685 6.50001 9.60685C8.63029 9.60685 10.3645 8.00607 10.3645 6.03966C10.3645 4.07091 8.63029 2.47247 6.50001 2.47247ZM6.50001 8.64825C4.94103 8.64825 3.6715 7.47638 3.6715 6.03732C3.6715 4.59825 4.94103 3.42638 6.50001 3.42638C8.059 3.42638 9.32853 4.59825 9.32853 6.03732C9.32853 7.47638 8.059 8.64825 6.50001 8.64825Z" fill="white"/>
<path d="M6.49999 1.75294C6.78691 1.75294 7.01796 1.53966 7.01796 1.27482V0.735754C7.01796 0.470911 6.78691 0.257629 6.49999 0.257629C6.21308 0.257629 5.98203 0.470911 5.98203 0.735754V1.27482C5.98203 1.53966 6.21308 1.75294 6.49999 1.75294Z" fill="white"/>
<path d="M6.49999 10.2467C6.21308 10.2467 5.98203 10.46 5.98203 10.7248V11.2615C5.98203 11.5264 6.21308 11.7397 6.49999 11.7397C6.78691 11.7397 7.01796 11.5264 7.01796 11.2615V10.7248C7.01796 10.4623 6.78691 10.2467 6.49999 10.2467Z" fill="white"/>
<path d="M12.2027 5.5217H11.6187C11.3318 5.5217 11.1008 5.73498 11.1008 5.99982C11.1008 6.26467 11.3318 6.47795 11.6187 6.47795H12.2027C12.4896 6.47795 12.7207 6.26467 12.7207 5.99982C12.7207 5.73498 12.4896 5.5217 12.2027 5.5217Z" fill="white"/>
<path d="M1.38125 5.5217H0.797266C0.510352 5.5217 0.279297 5.73498 0.279297 5.99982C0.279297 6.26467 0.510352 6.47795 0.797266 6.47795H1.37871C1.66562 6.47795 1.89668 6.26467 1.89668 5.99982C1.89922 5.73498 1.66562 5.5217 1.38125 5.5217Z" fill="white"/>
<path d="M10.1664 1.94043L9.75253 2.32012C9.54941 2.50762 9.54941 2.80996 9.75253 2.99746C9.95566 3.18496 10.2832 3.18496 10.4863 2.99746L10.8976 2.61777C11.1008 2.43027 11.1008 2.12793 10.8976 1.94043C10.6945 1.75293 10.367 1.75293 10.1664 1.94043Z" fill="white"/>
<path d="M2.51368 9.00217L2.10236 9.38186C1.89923 9.56936 1.89923 9.87171 2.10236 10.0592C2.30548 10.2467 2.63302 10.2467 2.83615 10.0592L3.24747 9.67952C3.4506 9.49202 3.4506 9.18967 3.24747 9.00217C3.04435 8.81467 2.71681 8.81702 2.51368 9.00217Z" fill="white"/>
<path d="M10.4863 9.00217C10.2832 8.81467 9.95566 8.81467 9.75253 9.00217C9.54941 9.18967 9.54941 9.49201 9.75253 9.67951L10.1639 10.0592C10.367 10.2467 10.6945 10.2467 10.8976 10.0592C11.1008 9.8717 11.1008 9.56935 10.8976 9.38185L10.4863 9.00217Z" fill="white"/>
<path d="M2.51368 2.99746C2.71681 3.18496 3.04435 3.18496 3.24747 2.99746C3.4506 2.80996 3.4506 2.50762 3.24747 2.32012L2.83615 1.94043C2.63302 1.75293 2.30548 1.75293 2.10236 1.94043C1.89923 2.12793 1.89923 2.43027 2.10236 2.61777L2.51368 2.99746Z" fill="white"/>
</svg>
