<svg width="13" height="12" viewBox="0 0 13 12" fill="none" xmlns="http://www.w3.org/2000/svg">
<path d="M6.5 2.47266C4.36972 2.47266 2.63554 4.07344 2.63554 6.03984C2.63554 8.00625 4.36972 9.60703 6.5 9.60703C8.63027 9.60703 10.3645 8.00625 10.3645 6.03984C10.3645 4.07109 8.63027 2.47266 6.5 2.47266ZM6.5 8.64844C4.94101 8.64844 3.67148 7.47656 3.67148 6.0375C3.67148 4.59844 4.94101 3.42656 6.5 3.42656C8.05898 3.42656 9.32851 4.59844 9.32851 6.0375C9.32851 7.47656 8.05898 8.64844 6.5 8.64844Z" fill="#CED7E0"/>
<path d="M6.49999 1.75313C6.78691 1.75313 7.01796 1.53984 7.01796 1.275V0.735937C7.01796 0.471094 6.78691 0.257812 6.49999 0.257812C6.21308 0.257812 5.98203 0.471094 5.98203 0.735937V1.275C5.98203 1.53984 6.21308 1.75313 6.49999 1.75313Z" fill="#CED7E0"/>
<path d="M6.49999 10.2469C6.21308 10.2469 5.98203 10.4602 5.98203 10.725V11.2617C5.98203 11.5266 6.21308 11.7399 6.49999 11.7399C6.78691 11.7399 7.01796 11.5266 7.01796 11.2617V10.725C7.01796 10.4625 6.78691 10.2469 6.49999 10.2469Z" fill="#CED7E0"/>
<path d="M12.2027 5.52188H11.6188C11.3318 5.52188 11.1008 5.73516 11.1008 6.00001C11.1008 6.26485 11.3318 6.47813 11.6188 6.47813H12.2027C12.4897 6.47813 12.7207 6.26485 12.7207 6.00001C12.7207 5.73516 12.4897 5.52188 12.2027 5.52188Z" fill="#CED7E0"/>
<path d="M1.38125 5.52188H0.797266C0.510352 5.52188 0.279297 5.73516 0.279297 6.00001C0.279297 6.26485 0.510352 6.47813 0.797266 6.47813H1.37871C1.66562 6.47813 1.89668 6.26485 1.89668 6.00001C1.89922 5.73516 1.66562 5.52188 1.38125 5.52188Z" fill="#CED7E0"/>
<path d="M10.1664 1.94061L9.75253 2.3203C9.54941 2.5078 9.54941 2.81014 9.75253 2.99764C9.95566 3.18514 10.2832 3.18514 10.4863 2.99764L10.8976 2.61796C11.1008 2.43046 11.1008 2.12811 10.8976 1.94061C10.6945 1.75311 10.367 1.75311 10.1664 1.94061Z" fill="#CED7E0"/>
<path d="M2.51367 9.00236L2.10234 9.38204C1.89922 9.56954 1.89922 9.87189 2.10234 10.0594C2.30547 10.2469 2.633 10.2469 2.83613 10.0594L3.24746 9.6797C3.45058 9.4922 3.45058 9.18986 3.24746 9.00236C3.04433 8.81486 2.71679 8.8172 2.51367 9.00236Z" fill="#CED7E0"/>
<path d="M10.4863 9.00235C10.2832 8.81485 9.95566 8.81485 9.75253 9.00235C9.54941 9.18985 9.54941 9.49219 9.75253 9.67969L10.1639 10.0594C10.367 10.2469 10.6945 10.2469 10.8976 10.0594C11.1008 9.87188 11.1008 9.56954 10.8976 9.38204L10.4863 9.00235Z" fill="#CED7E0"/>
<path d="M2.51367 2.99764C2.71679 3.18514 3.04433 3.18514 3.24746 2.99764C3.45058 2.81014 3.45058 2.5078 3.24746 2.3203L2.83613 1.94061C2.633 1.75311 2.30547 1.75311 2.10234 1.94061C1.89922 2.12811 1.89922 2.43046 2.10234 2.61796L2.51367 2.99764Z" fill="#CED7E0"/>
</svg>
