<svg width="32.000000" height="32.000000" viewBox="0 0 32 32" fill="none" xmlns="http://www.w3.org/2000/svg" xmlns:xlink="http://www.w3.org/1999/xlink">
	<desc>
			Created with Pixso.
	</desc>
	<defs>
		<clipPath id="clip2109_6473">
			<rect id="Frame" rx="-0.500000" width="31.000000" height="31.000000" transform="translate(0.500000 0.500000)" fill="white" fill-opacity="0"/>
		</clipPath>
	</defs>
	<rect id="Frame" rx="-0.500000" width="31.000000" height="31.000000" transform="translate(0.500000 0.500000)" fill="#FFFFFF" fill-opacity="0"/>
	<g clip-path="url(#clip2109_6473)">
		<path id="Vector" d="M8.54 8.96C8.29 8.89 8.03 9.04 7.97 9.29L7.79 10C7.72 10.25 7.87 10.51 8.12 10.58C8.37 10.64 8.63 10.49 8.69 10.24L8.88 9.53C8.94 9.28 8.79 9.02 8.54 8.96Z" fill="#EDF2F7" fill-opacity="1.000000" fill-rule="nonzero"/>
		<path id="Vector" d="M15.95 10.87C15.7 10.81 15.44 10.96 15.38 11.21L15.19 11.92C15.12 12.22 15.34 12.51 15.65 12.51C15.86 12.51 16.05 12.36 16.1 12.15L16.29 11.44C16.35 11.19 16.2 10.94 15.95 10.87Z" fill="#EDF2F7" fill-opacity="1.000000" fill-rule="nonzero"/>
		<path id="Vector" d="M13.51 12.13C13.26 12.06 13.01 12.21 12.94 12.46C12.92 12.57 12.85 12.66 12.75 12.72C12.43 12.91 12.04 12.61 12.14 12.25L12.25 11.83L12.46 11.89C12.71 11.95 12.96 11.8 13.03 11.55C13.09 11.3 12.94 11.04 12.69 10.98L11.36 10.63C11.11 10.57 10.85 10.72 10.79 10.97C10.72 11.22 10.87 11.48 11.13 11.54L11.34 11.6L11.23 12.02C11.2 12.13 11.13 12.22 11.04 12.27C10.72 12.46 10.33 12.17 10.42 11.81C10.49 11.56 10.34 11.3 10.08 11.24C9.83 11.17 9.58 11.32 9.51 11.58C9.22 12.7 10.4 13.64 11.43 13.13C12.09 14.08 13.56 13.82 13.85 12.7C13.92 12.45 13.77 12.19 13.51 12.13Z" fill="#EDF2F7" fill-opacity="1.000000" fill-rule="nonzero"/>
		<path id="Vector" d="M20.53 14.5C20.28 14.44 20.03 14.59 19.96 14.84L19.8 15.48C19.72 15.78 19.95 16.07 20.25 16.07C20.46 16.07 20.65 15.93 20.7 15.72L20.87 15.08C20.94 14.82 20.78 14.57 20.53 14.5Z" fill="#EDF2F7" fill-opacity="1.000000" fill-rule="nonzero"/>
		<path id="Vector" d="M27.2 16.23C26.95 16.16 26.69 16.31 26.63 16.56L26.46 17.2C26.39 17.5 26.61 17.79 26.92 17.79C27.13 17.79 27.32 17.65 27.37 17.44L27.54 16.8C27.6 16.55 27.45 16.29 27.2 16.23Z" fill="#EDF2F7" fill-opacity="1.000000" fill-rule="nonzero"/>
		<path id="Vector" d="M25.01 17.36C24.76 17.29 24.5 17.44 24.44 17.69C24.42 17.78 24.36 17.85 24.29 17.89C24.04 18.04 23.73 17.81 23.8 17.53C23.87 17.28 23.72 17.02 23.47 16.96C23.22 16.89 22.96 17.04 22.9 17.29C22.85 17.47 22.67 17.58 22.5 17.53C22.32 17.48 22.21 17.31 22.26 17.13C22.32 16.88 22.17 16.62 21.92 16.56C21.67 16.49 21.42 16.64 21.35 16.9C21.09 17.92 22.13 18.81 23.1 18.36C23.73 19.21 25.08 18.96 25.35 17.93C25.41 17.68 25.26 17.42 25.01 17.36Z" fill="#EDF2F7" fill-opacity="1.000000" fill-rule="nonzero"/>
		<path id="Vector" d="M24.59 9.11C24.73 9.31 24.95 9.43 25.21 9.43C33.29 9.25 31.63 2.82 27.83 3.5C26.14 0.03 19.97 2.49 24.59 9.11ZM27.11 4.21C27.19 4.45 27.45 4.58 27.69 4.5C30.47 3.63 31.96 8.3 25.3 8.49C21.53 2.99 26.17 1.44 27.11 4.21Z" fill="#EDF2F7" fill-opacity="1.000000" fill-rule="nonzero"/>
		<path id="Vector" d="M26.88 30.06C27.53 30.06 28.14 29.8 28.6 29.34C29.05 28.87 29.29 28.26 29.28 27.61C29.26 27 29.2 26.41 29.09 25.84C29.04 25.58 28.79 25.42 28.54 25.47C28.28 25.52 28.12 25.76 28.17 26.02C28.27 26.53 28.32 27.08 28.34 27.63C28.35 28.03 28.2 28.4 27.93 28.68C27.65 28.97 27.28 29.12 26.88 29.12L25.36 29.12C26.16 27.44 25.75 25.34 25.73 25.24C25.67 24.99 25.43 24.83 25.17 24.88C24.92 24.93 24.76 25.18 24.81 25.43C24.81 25.45 25.26 27.73 24.28 29.12L22.93 29.12L22.93 25.34C22.93 25.08 22.72 24.87 22.46 24.87C22.2 24.87 21.99 25.08 21.99 25.34L21.99 29.12L20.64 29.12C19.67 27.73 20.11 25.46 20.12 25.43C20.17 25.18 20.01 24.93 19.75 24.88C19.5 24.83 19.25 24.99 19.2 25.24C19.18 25.34 18.76 27.44 19.56 29.12L18.04 29.12C17.23 29.12 16.57 28.45 16.59 27.63C16.66 24.83 17.83 22.77 19.35 21.66C21.3 23.33 24.12 23.63 26.41 22.41C26.8 22.84 27.28 23.48 27.66 24.35C27.76 24.59 28.03 24.7 28.27 24.6C28.51 24.49 28.62 24.22 28.52 23.98C28.18 23.21 27.73 22.5 27.2 21.9C28.55 20.89 29.43 19.41 29.67 17.74C31.3 17.06 32.07 15.37 31.99 13.58C31.97 13.23 31.8 12.91 31.52 12.71C30.22 11.78 28.73 11.53 27.47 12.02C26.13 10.91 24.39 10.4 22.68 10.6C22.57 10.45 22.45 10.31 22.32 10.17C22.44 8.05 21.94 6.58 20.83 5.81C19.26 4.72 17.01 5.44 16.28 5.73C14.69 4.79 12.89 4.45 11.15 4.68C10.83 4.39 10.08 3.79 9.02 3.47C6.65 2.75 4.66 3.96 3.42 5.1C2.26 6.16 1.55 7.22 1.31 8.26C1.09 9.16 1.25 10 1.75 10.64C2.13 11.12 2.65 11.41 3.18 11.48C2.87 12.02 2.59 12.59 2.33 13.17C2.22 13.41 2.33 13.69 2.56 13.79C2.8 13.9 3.08 13.8 3.18 13.56C3.59 12.65 4.06 11.78 4.57 10.96C5.32 9.76 6.57 8.13 7.59 7.25C10.96 4.36 16.17 5.26 18.36 9.14C18.24 9.23 18.13 9.31 18.04 9.45C17 10.89 16.72 12.75 17.72 14.2C16.69 16.42 17.01 19.08 18.68 20.99C17.07 22.23 15.82 24.37 15.66 27.29C15.62 28.02 15.69 28.53 16.14 29.12L12.98 29.12C15.06 25.99 14.67 21.66 14.65 21.46C14.62 21.2 14.39 21.01 14.13 21.04C13.88 21.06 13.69 21.29 13.71 21.55C13.72 21.6 14.15 26.27 11.81 29.12L9.47 29.12C9.32 24.69 9.82 22.34 10.11 21.71C10.22 21.47 10.12 21.19 9.89 21.08C9.66 20.97 9.38 21.07 9.26 21.3C9.23 21.38 8.34 23.3 8.53 29.12L6.75 29.12C4.47 26.3 5.45 21.65 5.46 21.61C5.52 21.35 5.36 21.1 5.11 21.05C4.85 20.99 4.6 21.15 4.55 21.4C4.54 21.46 4.26 22.75 4.31 24.43C4.37 26.28 4.81 27.88 5.6 29.12L4.49 29.12C2.68 29.12 1.17 27.74 1.01 25.94C0.7 22.41 1.36 18.43 2.5 15.26C2.59 15.01 2.46 14.75 2.22 14.66C1.97 14.57 1.7 14.7 1.62 14.94C0.44 18.23 -0.25 22.35 0.07 26.02C0.17 27.13 0.68 28.15 1.5 28.9C2.32 29.65 3.38 30.06 4.49 30.06L26.88 30.06ZM3.77 10.46C3.38 10.66 2.83 10.5 2.48 10.06C1.53 8.84 2.73 7 4.05 5.79C5.37 4.59 6.58 4.2 7.6 4.2C8.6 4.2 9.42 4.58 9.95 4.93C7.8 5.55 6.46 6.84 5.03 8.66C4.59 9.23 4.15 9.86 3.77 10.46ZM30.97 13.47C31.02 13.51 31.05 13.56 31.05 13.63C31.11 14.95 30.62 16.06 29.73 16.65C29.68 15.23 29.15 13.86 28.22 12.77C29.09 12.59 30.08 12.83 30.97 13.47ZM18.73 10.1C18.86 9.9 18.86 9.91 19.13 9.91C20.05 9.9 20.98 10.17 21.64 10.82C20.32 11.21 19.11 12.04 18.26 13.26C17.9 12.42 17.97 11.22 18.73 10.1ZM21.4 9.49C20.76 9.15 20.06 9 19.34 8.97C18.83 7.99 18.15 7.13 17.25 6.4C19.89 5.65 21.37 6.62 21.4 9.49ZM24.67 22.07C20.16 23.14 16.44 18.32 18.77 14.21C20.47 11.22 24.53 10.57 27.06 12.91C28.57 14.31 29.14 16.45 28.57 18.38C28.01 20.28 26.47 21.64 24.67 22.07Z" fill="#EDF2F7" fill-opacity="1.000000" fill-rule="nonzero"/>
	</g>
</svg>
